<svg width="100" height="100" viewBox="0 0 100 100" fill="none" xmlns="http://www.w3.org/2000/svg">
<g filter="url(#filter0_i_1244_9768)">
<rect width="100" height="100" rx="12" fill="#4A2475"/>
</g>
<path d="M43 51C43 51 45.625 54 50 54C54.375 54 57 51 57 51M55.5 41H55.52M44.5 41H44.52M40 62V66.671C40 67.7367 40 68.2696 40.2185 68.5432C40.4084 68.7812 40.6965 68.9197 41.0011 68.9194C41.3513 68.919 41.7673 68.5861 42.5995 67.9204L47.3704 64.1037C48.345 63.324 48.8323 62.9341 49.375 62.6569C49.8564 62.411 50.3689 62.2312 50.8984 62.1225C51.4953 62 52.1194 62 53.3675 62H58.4C61.7603 62 63.4405 62 64.7239 61.346C65.8529 60.7708 66.7708 59.8529 67.346 58.7239C68 57.4405 68 55.7603 68 52.4V41.6C68 38.2397 68 36.5595 67.346 35.2761C66.7708 34.1471 65.8529 33.2292 64.7239 32.654C63.4405 32 61.7603 32 58.4 32H41.6C38.2397 32 36.5595 32 35.2761 32.654C34.1471 33.2292 33.2292 34.1471 32.654 35.2761C32 36.5595 32 38.2397 32 41.6V54C32 55.8599 32 56.7899 32.2044 57.5529C32.7592 59.6235 34.3765 61.2408 36.4471 61.7956C37.2101 62 38.1401 62 40 62ZM56.5 41C56.5 41.5523 56.0523 42 55.5 42C54.9477 42 54.5 41.5523 54.5 41C54.5 40.4477 54.9477 40 55.5 40C56.0523 40 56.5 40.4477 56.5 41ZM45.5 41C45.5 41.5523 45.0523 42 44.5 42C43.9477 42 43.5 41.5523 43.5 41C43.5 40.4477 43.9477 40 44.5 40C45.0523 40 45.5 40.4477 45.5 41Z" stroke="white" stroke-width="3" stroke-linecap="round" stroke-linejoin="round"/>
<defs>
<filter id="filter0_i_1244_9768" x="0" y="0" width="100" height="100" filterUnits="userSpaceOnUse" color-interpolation-filters="sRGB">
<feFlood flood-opacity="0" result="BackgroundImageFix"/>
<feBlend mode="normal" in="SourceGraphic" in2="BackgroundImageFix" result="shape"/>
<feColorMatrix in="SourceAlpha" type="matrix" values="0 0 0 0 0 0 0 0 0 0 0 0 0 0 0 0 0 0 127 0" result="hardAlpha"/>
<feOffset dy="-3"/>
<feComposite in2="hardAlpha" operator="arithmetic" k2="-1" k3="1"/>
<feColorMatrix type="matrix" values="0 0 0 0 0 0 0 0 0 0 0 0 0 0 0 0 0 0 0.2 0"/>
<feBlend mode="normal" in2="shape" result="effect1_innerShadow_1244_9768"/>
</filter>
</defs>
</svg>
