<svg width="100" height="100" viewBox="0 0 100 100" fill="none" xmlns="http://www.w3.org/2000/svg">
<g filter="url(#filter0_i_1244_9778)">
<rect width="100" height="100" rx="12" fill="#321954"/>
</g>
<path d="M41.7373 56.9199L40 70L49.1768 64.4939C49.4761 64.3143 49.6258 64.2245 49.7855 64.1895C49.9268 64.1584 50.0732 64.1584 50.2145 64.1895C50.3742 64.2245 50.5239 64.3143 50.8232 64.4939L60 70L58.2638 56.9142M58.8518 34.4978C59.1606 35.2448 59.7535 35.8386 60.5001 36.1486L63.1179 37.233C63.8649 37.5424 64.4585 38.136 64.7679 38.8831C65.0774 39.6302 65.0774 40.4696 64.7679 41.2167L63.6844 43.8327C63.3748 44.5801 63.3744 45.4204 63.6853 46.1675L64.767 48.7827C64.9204 49.1527 64.9994 49.5494 64.9995 49.9499C64.9995 50.3505 64.9207 50.7471 64.7674 51.1172C64.6141 51.4873 64.3894 51.8235 64.1061 52.1067C63.8228 52.3899 63.4865 52.6145 63.1164 52.7677L60.5005 53.8513C59.7535 54.1602 59.1597 54.7531 58.8497 55.4997L57.7654 58.1175C57.456 58.8646 56.8624 59.4582 56.1154 59.7677C55.3683 60.0771 54.5289 60.0771 53.7818 59.7677L51.1659 58.6841C50.4188 58.3754 49.5797 58.376 48.8331 58.6858L46.2153 59.7686C45.4687 60.0774 44.63 60.0771 43.8836 59.7679C43.1371 59.4587 42.5439 58.8658 42.2342 58.1195L41.1496 55.5009C40.8407 54.7538 40.2478 54.16 39.5013 53.85L36.8835 52.7657C36.1368 52.4564 35.5434 51.8632 35.2338 51.1165C34.9243 50.3698 34.9238 49.5308 35.2327 48.7838L36.3162 46.1678C36.6249 45.4207 36.6243 44.5816 36.3144 43.8349L35.2325 41.2152C35.0791 40.8451 35.0001 40.4485 35 40.0479C34.9999 39.6474 35.0788 39.2507 35.2321 38.8806C35.3854 38.5106 35.6101 38.1743 35.8934 37.8911C36.1766 37.6079 36.5129 37.3833 36.883 37.2302L39.4989 36.1466C40.2453 35.838 40.8387 35.2458 41.149 34.5001L42.2333 31.8822C42.5427 31.1351 43.1363 30.5416 43.8833 30.2321C44.6304 29.9226 45.4698 29.9226 46.2169 30.2321L48.8328 31.3157C49.5799 31.6244 50.419 31.6237 51.1656 31.3139L53.7845 30.2338C54.5314 29.9245 55.3706 29.9246 56.1176 30.2339C56.8645 30.5433 57.458 31.1367 57.7675 31.8836L58.8521 34.5023L58.8518 34.4978Z" stroke="white" stroke-width="3" stroke-linecap="round" stroke-linejoin="round"/>
<defs>
<filter id="filter0_i_1244_9778" x="0" y="0" width="100" height="100" filterUnits="userSpaceOnUse" color-interpolation-filters="sRGB">
<feFlood flood-opacity="0" result="BackgroundImageFix"/>
<feBlend mode="normal" in="SourceGraphic" in2="BackgroundImageFix" result="shape"/>
<feColorMatrix in="SourceAlpha" type="matrix" values="0 0 0 0 0 0 0 0 0 0 0 0 0 0 0 0 0 0 127 0" result="hardAlpha"/>
<feOffset dy="-3"/>
<feComposite in2="hardAlpha" operator="arithmetic" k2="-1" k3="1"/>
<feColorMatrix type="matrix" values="0 0 0 0 0 0 0 0 0 0 0 0 0 0 0 0 0 0 0.2 0"/>
<feBlend mode="normal" in2="shape" result="effect1_innerShadow_1244_9778"/>
</filter>
</defs>
</svg>
