<svg width="136" height="36" viewBox="0 0 136 36" fill="none" xmlns="http://www.w3.org/2000/svg">
<path d="M22.0745 16.7406C22.0388 12.873 25.3225 10.9914 25.4726 10.9038C23.6129 8.2602 20.7305 7.899 19.7175 7.8702C17.2966 7.6218 14.9483 9.2826 13.7151 9.2826C12.4572 9.2826 10.5582 7.8942 8.51139 7.935C5.87754 7.9746 3.41354 9.4614 2.06216 11.7702C-0.726766 16.4778 1.35323 23.3958 4.02523 27.201C5.36185 29.0646 6.9237 31.1454 8.968 31.0722C10.968 30.9918 11.7151 29.829 14.1286 29.829C16.52 29.829 17.2215 31.0722 19.3065 31.0254C21.4529 30.9918 22.8043 29.1534 24.0942 27.273C25.6388 25.137 26.2591 23.0334 26.2837 22.9254C26.2332 22.9086 22.1151 21.3762 22.0745 16.7406Z" fill="white"/>
<path d="M18.136 5.367C19.2117 4.0554 19.9477 2.271 19.7434 0.460205C18.1865 0.527405 16.2394 1.51021 15.1182 2.793C14.1262 3.9234 13.24 5.7762 13.4689 7.5186C15.2178 7.6458 17.0135 6.6582 18.136 5.367Z" fill="white"/>
<path d="M51.0253 30.8054H48.2302L46.6992 26.1146H41.3773L39.9189 30.8054H37.1976L42.4702 14.8358H45.7269L51.0253 30.8054ZM46.2376 24.1466L44.853 19.9766C44.7066 19.5506 44.4321 18.5474 44.0272 16.9682H43.9779C43.8167 17.6474 43.557 18.6506 43.2001 19.9766L41.8401 24.1466H46.2376Z" fill="white"/>
<path d="M64.5864 24.9067C64.5864 26.8651 64.0436 28.4131 62.9581 29.5495C61.9858 30.5611 60.7784 31.0663 59.3371 31.0663C57.7814 31.0663 56.6639 30.5215 55.9833 29.4319H55.9341V35.4979H53.3101V23.0815C53.3101 21.8503 53.2768 20.5867 53.2128 19.2907H55.5205L55.667 21.1159H55.7162C56.5913 19.7407 57.9193 19.0543 59.7014 19.0543C61.0947 19.0543 62.2578 19.5907 63.1882 20.6647C64.1211 21.7399 64.5864 23.1535 64.5864 24.9067ZM61.9131 25.0003C61.9131 23.8795 61.6547 22.9555 61.1353 22.2283C60.5679 21.4699 59.8061 21.0907 58.851 21.0907C58.2036 21.0907 57.6153 21.3019 57.0898 21.7183C56.563 22.1383 56.2184 22.6867 56.0571 23.3659C55.9759 23.6827 55.9353 23.9419 55.9353 24.1459V26.0659C55.9353 26.9035 56.1987 27.6103 56.7254 28.1875C57.2522 28.7647 57.9365 29.0527 58.7784 29.0527C59.7667 29.0527 60.5359 28.6807 61.0861 27.9391C61.6374 27.1963 61.9131 26.2171 61.9131 25.0003Z" fill="white"/>
<path d="M78.1691 24.9067C78.1691 26.8651 77.6263 28.4131 76.5395 29.5495C75.5684 30.5611 74.3611 31.0663 72.9198 31.0663C71.3641 31.0663 70.2466 30.5215 69.5672 29.4319H69.518V35.4979H66.894V23.0815C66.894 21.8503 66.8608 20.5867 66.7968 19.2907H69.1044L69.2509 21.1159H69.3001C70.174 19.7407 71.502 19.0543 73.2854 19.0543C74.6774 19.0543 75.8405 19.5907 76.7734 20.6647C77.7026 21.7399 78.1691 23.1535 78.1691 24.9067ZM75.4958 25.0003C75.4958 23.8795 75.2361 22.9555 74.7168 22.2283C74.1494 21.4699 73.39 21.0907 72.4337 21.0907C71.7851 21.0907 71.198 21.3019 70.6712 21.7183C70.1444 22.1383 69.8011 22.6867 69.6398 23.3659C69.5598 23.6827 69.518 23.9419 69.518 24.1459V26.0659C69.518 26.9035 69.7814 27.6103 70.3057 28.1875C70.8324 28.7635 71.5168 29.0527 72.3611 29.0527C73.3494 29.0527 74.1186 28.6807 74.6688 27.9391C75.2201 27.1963 75.4958 26.2171 75.4958 25.0003Z" fill="white"/>
<path d="M93.3575 26.3268C93.3575 27.6852 92.8738 28.7904 91.9027 29.6436C90.8356 30.576 89.3501 31.0416 87.4412 31.0416C85.6787 31.0416 84.2658 30.7104 83.1962 30.0468L83.8042 27.9144C84.9562 28.5936 86.2202 28.9344 87.5975 28.9344C88.5858 28.9344 89.355 28.716 89.9076 28.2816C90.4578 27.8472 90.7322 27.264 90.7322 26.5368C90.7322 25.8888 90.5058 25.3428 90.0516 24.9C89.5999 24.4572 88.8455 24.0456 87.7919 23.6652C84.9242 22.6224 83.4916 21.0948 83.4916 19.086C83.4916 17.7732 83.9938 16.6968 84.9993 15.8592C86.0012 15.0204 87.3378 14.6016 89.0091 14.6016C90.4996 14.6016 91.7378 14.8548 92.7261 15.36L92.0701 17.4456C91.147 16.956 90.1033 16.7112 88.9353 16.7112C88.0122 16.7112 87.291 16.9332 86.7741 17.3748C86.3372 17.7696 86.1181 18.2508 86.1181 18.8208C86.1181 19.452 86.3679 19.974 86.8701 20.3844C87.307 20.7636 88.1008 21.174 89.2528 21.6168C90.6621 22.17 91.6972 22.8168 92.363 23.5584C93.0264 24.2976 93.3575 25.2228 93.3575 26.3268Z" fill="white"/>
<path d="M102.032 21.2103H99.1394V26.8011C99.1394 28.2231 99.6489 28.9335 100.67 28.9335C101.139 28.9335 101.528 28.8939 101.836 28.8147L101.909 30.7575C101.392 30.9459 100.711 31.0407 99.868 31.0407C98.8317 31.0407 98.0218 30.7323 97.4372 30.1167C96.8551 29.4999 96.5621 28.4655 96.5621 27.0123V21.2079H94.8391V19.2879H96.5621V17.1795L99.1394 16.4211V19.2879H102.032V21.2103Z" fill="white"/>
<path d="M115.085 24.9523C115.085 26.7223 114.566 28.1755 113.53 29.3119C112.443 30.4819 111 31.0651 109.202 31.0651C107.469 31.0651 106.09 30.5047 105.061 29.3839C104.032 28.2631 103.517 26.8483 103.517 25.1431C103.517 23.3587 104.046 21.8971 105.109 20.7607C106.168 19.6231 107.598 19.0543 109.397 19.0543C111.13 19.0543 112.524 19.6147 113.576 20.7367C114.583 21.8251 115.085 23.2303 115.085 24.9523ZM112.363 25.0351C112.363 23.9731 112.13 23.0623 111.659 22.3027C111.109 21.3835 110.322 20.9251 109.303 20.9251C108.248 20.9251 107.447 21.3847 106.897 22.3027C106.426 23.0635 106.193 23.9887 106.193 25.0831C106.193 26.1451 106.426 27.0559 106.897 27.8143C107.464 28.7335 108.257 29.1919 109.28 29.1919C110.282 29.1919 111.068 28.7239 111.635 27.7903C112.119 27.0163 112.363 26.0959 112.363 25.0351Z" fill="white"/>
<path d="M123.612 21.5407C123.352 21.4939 123.075 21.4699 122.785 21.4699C121.862 21.4699 121.148 21.8095 120.646 22.4899C120.209 23.0899 119.99 23.8483 119.99 24.7639V30.8059H117.367L117.392 22.9171C117.392 21.5899 117.359 20.3815 117.293 19.2919H119.579L119.675 21.4951H119.747C120.024 20.7379 120.461 20.1283 121.059 19.6711C121.644 19.2595 122.275 19.0543 122.956 19.0543C123.199 19.0543 123.418 19.0711 123.612 19.1011V21.5407Z" fill="white"/>
<path d="M135.346 24.5027C135.346 24.9611 135.315 25.3475 135.25 25.6631H127.378C127.409 26.8007 127.789 27.6707 128.52 28.2707C129.183 28.8071 130.041 29.0759 131.095 29.0759C132.26 29.0759 133.324 28.8947 134.28 28.5311L134.691 30.3071C133.574 30.7823 132.254 31.0187 130.732 31.0187C128.9 31.0187 127.463 30.4931 126.417 29.4431C125.373 28.3931 124.85 26.9831 124.85 25.2143C124.85 23.4779 125.336 22.0319 126.31 20.8787C127.329 19.6475 128.706 19.0319 130.439 19.0319C132.141 19.0319 133.43 19.6475 134.305 20.8787C134.998 21.8567 135.346 23.0663 135.346 24.5027ZM132.844 23.8391C132.861 23.0807 132.69 22.4255 132.334 21.8723C131.88 21.1607 131.182 20.8055 130.243 20.8055C129.385 20.8055 128.687 21.1523 128.154 21.8483C127.718 22.4015 127.458 23.0651 127.378 23.8379H132.844V23.8391Z" fill="white"/>
<path d="M45.372 5.01191C45.372 6.42431 44.9376 7.48751 44.0699 8.20151C43.2662 8.86031 42.124 9.19031 40.6446 9.19031C39.9111 9.19031 39.2834 9.15911 38.7579 9.09671V1.37951C39.4434 1.27151 40.1819 1.21631 40.9794 1.21631C42.3886 1.21631 43.4508 1.51511 44.1671 2.11271C44.9696 2.78831 45.372 3.75431 45.372 5.01191ZM44.012 5.04671C44.012 4.13111 43.7634 3.42911 43.2662 2.93951C42.769 2.45111 42.0428 2.20631 41.0865 2.20631C40.6803 2.20631 40.3345 2.23271 40.0477 2.28791V8.15471C40.2065 8.17871 40.497 8.18951 40.9191 8.18951C41.9062 8.18951 42.668 7.92191 43.2047 7.38671C43.7413 6.85151 44.012 6.07151 44.012 5.04671Z" fill="white"/>
<path d="M52.5813 6.24543C52.5813 7.11543 52.3265 7.82823 51.817 8.38743C51.2828 8.96223 50.5751 9.24903 49.6914 9.24903C48.8397 9.24903 48.1616 8.97423 47.6557 8.42223C47.1511 7.87143 46.8988 7.17663 46.8988 6.33903C46.8988 5.46303 47.1585 4.74423 47.6803 4.18623C48.2022 3.62823 48.9037 3.34863 49.7874 3.34863C50.6391 3.34863 51.3234 3.62343 51.8416 4.17423C52.3339 4.70943 52.5813 5.40063 52.5813 6.24543ZM51.2434 6.28623C51.2434 5.76423 51.1277 5.31663 50.8976 4.94343C50.6268 4.49223 50.2416 4.26663 49.7407 4.26663C49.2225 4.26663 48.8287 4.49223 48.5579 4.94343C48.3265 5.31663 48.212 5.77143 48.212 6.30903C48.212 6.83103 48.3277 7.27863 48.5579 7.65183C48.8373 8.10303 49.2262 8.32863 49.7283 8.32863C50.2207 8.32863 50.6071 8.09943 50.8853 7.63983C51.124 7.25943 51.2434 6.80823 51.2434 6.28623Z" fill="white"/>
<path d="M62.2537 3.46423L60.4384 9.12103H59.2568L58.5048 6.66463C58.3141 6.05143 58.159 5.44183 58.0384 4.83703H58.015C57.903 5.45863 57.7479 6.06703 57.5485 6.66463L56.7497 9.12103H55.5547L53.8476 3.46423H55.1731L55.8291 6.15343C55.9879 6.78943 56.1184 7.39543 56.223 7.96903H56.2464C56.3424 7.49623 56.5011 6.89383 56.7251 6.16543L57.5485 3.46543H58.5996L59.3885 6.10783C59.5793 6.75223 59.7344 7.37263 59.8537 7.97023H59.8894C59.9768 7.38823 60.1085 6.76783 60.2833 6.10783L60.9873 3.46543H62.2537V3.46423Z" fill="white"/>
<path d="M68.9407 9.12033H67.6508V5.88033C67.6508 4.88193 67.2619 4.38273 66.4816 4.38273C66.0988 4.38273 65.7899 4.51953 65.5499 4.79433C65.3124 5.06913 65.1918 5.39313 65.1918 5.76393V9.11913H63.9019V5.07993C63.9019 4.58313 63.8859 4.04433 63.8552 3.46113H64.9887L65.049 4.34553H65.0847C65.2349 4.07073 65.4589 3.84393 65.753 3.66273C66.1025 3.45153 66.4939 3.34473 66.9222 3.34473C67.4638 3.34473 67.9142 3.51513 68.2724 3.85713C68.7179 4.27593 68.9407 4.90113 68.9407 5.73153V9.12033Z" fill="white"/>
<path d="M72.4965 9.12068H71.2079V0.868286H72.4965V9.12068Z" fill="white"/>
<path d="M80.0902 6.24543C80.0902 7.11543 79.8355 7.82823 79.3259 8.38743C78.7918 8.96223 78.0829 9.24903 77.2004 9.24903C76.3475 9.24903 75.6693 8.97423 75.1647 8.42223C74.6601 7.87143 74.4078 7.17663 74.4078 6.33903C74.4078 5.46303 74.6675 4.74423 75.1893 4.18623C75.7112 3.62823 76.4127 3.34863 77.2952 3.34863C78.1481 3.34863 78.8312 3.62343 79.3505 4.17423C79.8429 4.70943 80.0902 5.40063 80.0902 6.24543ZM78.7512 6.28623C78.7512 5.76423 78.6355 5.31663 78.4053 4.94343C78.1358 4.49223 77.7493 4.26663 77.2496 4.26663C76.7302 4.26663 76.3364 4.49223 76.0669 4.94343C75.8355 5.31663 75.721 5.77143 75.721 6.30903C75.721 6.83103 75.8367 7.27863 76.0669 7.65183C76.3462 8.10303 76.7352 8.32863 77.2373 8.32863C77.7296 8.32863 78.1149 8.09943 78.393 7.63983C78.633 7.25943 78.7512 6.80823 78.7512 6.28623Z" fill="white"/>
<path d="M86.3314 9.12063H85.1733L85.0773 8.46903H85.0416C84.6453 8.98863 84.0804 9.24903 83.3468 9.24903C82.7991 9.24903 82.3561 9.07743 82.0225 8.73663C81.7197 8.42703 81.5684 8.04183 81.5684 7.58463C81.5684 6.89343 81.8637 6.36663 82.4582 6.00183C83.0514 5.63703 83.8859 5.45823 84.9604 5.46663V5.36103C84.9604 4.61583 84.5591 4.24383 83.7554 4.24383C83.1831 4.24383 82.6785 4.38423 82.2428 4.66263L81.9807 3.83703C82.5197 3.51183 83.1856 3.34863 83.9708 3.34863C85.4871 3.34863 86.2477 4.12863 86.2477 5.68863V7.77183C86.2477 8.33703 86.276 8.78703 86.3314 9.12063ZM84.9924 7.17663V6.30423C83.5696 6.28023 82.8582 6.66063 82.8582 7.44423C82.8582 7.73943 82.9394 7.96023 83.1056 8.10783C83.2717 8.25543 83.4834 8.32863 83.7357 8.32863C84.0188 8.32863 84.2834 8.24103 84.5247 8.06703C84.7671 7.89183 84.916 7.66983 84.9714 7.39743C84.985 7.33623 84.9924 7.26183 84.9924 7.17663Z" fill="white"/>
<path d="M93.6635 9.12068H92.5188L92.4585 8.21229H92.4228C92.0573 8.90349 91.4345 9.24909 90.5595 9.24909C89.8604 9.24909 89.2782 8.98149 88.8167 8.44629C88.3551 7.91109 88.125 7.21629 88.125 6.36309C88.125 5.44749 88.3748 4.70589 88.877 4.13949C89.3632 3.61149 89.9588 3.34749 90.6678 3.34749C91.4468 3.34749 91.9921 3.60309 92.3022 4.11549H92.3268V0.868286H93.6179V7.59669C93.6179 8.14749 93.6327 8.65509 93.6635 9.12068ZM92.3268 6.73509V5.79189C92.3268 5.62869 92.3145 5.49669 92.2911 5.39589C92.2185 5.09349 92.0622 4.83909 91.8247 4.63389C91.5847 4.42869 91.2954 4.32549 90.9619 4.32549C90.4807 4.32549 90.1041 4.51149 89.8271 4.88469C89.5527 5.25789 89.4136 5.73429 89.4136 6.31629C89.4136 6.87548 89.5453 7.32909 89.8099 7.67829C90.0893 8.05029 90.4659 8.23629 90.9373 8.23629C91.3607 8.23629 91.6991 8.08148 91.9564 7.77069C92.205 7.48388 92.3268 7.13829 92.3268 6.73509Z" fill="white"/>
<path d="M104.689 6.24543C104.689 7.11543 104.435 7.82823 103.925 8.38743C103.391 8.96223 102.685 9.24903 101.8 9.24903C100.949 9.24903 100.271 8.97423 99.7639 8.42223C99.2593 7.87143 99.007 7.17663 99.007 6.33903C99.007 5.46303 99.2667 4.74423 99.7886 4.18623C100.31 3.62823 101.012 3.34863 101.897 3.34863C102.747 3.34863 103.433 3.62343 103.95 4.17423C104.442 4.70943 104.689 5.40063 104.689 6.24543ZM103.353 6.28623C103.353 5.76423 103.237 5.31663 103.007 4.94343C102.735 4.49223 102.351 4.26663 101.849 4.26663C101.332 4.26663 100.938 4.49223 100.666 4.94343C100.435 5.31663 100.32 5.77143 100.32 6.30903C100.32 6.83103 100.436 7.27863 100.666 7.65183C100.945 8.10303 101.334 8.32863 101.837 8.32863C102.329 8.32863 102.717 8.09943 102.995 7.63983C103.232 7.25943 103.353 6.80823 103.353 6.28623Z" fill="white"/>
<path d="M111.628 9.12033H110.34V5.88033C110.34 4.88193 109.951 4.38273 109.169 4.38273C108.787 4.38273 108.478 4.51953 108.239 4.79433C108 5.06913 107.881 5.39313 107.881 5.76393V9.11913H106.59V5.07993C106.59 4.58313 106.575 4.04433 106.544 3.46113H107.676L107.737 4.34553H107.772C107.924 4.07073 108.148 3.84393 108.441 3.66273C108.791 3.45153 109.182 3.34473 109.611 3.34473C110.151 3.34473 110.602 3.51513 110.96 3.85713C111.407 4.27593 111.628 4.90113 111.628 5.73153V9.12033Z" fill="white"/>
<path d="M120.309 4.40634H118.888V7.15434C118.888 7.85274 119.141 8.20194 119.64 8.20194C119.872 8.20194 120.064 8.18274 120.215 8.14314L120.248 9.09714C119.994 9.19074 119.659 9.23754 119.247 9.23754C118.737 9.23754 118.341 9.08634 118.054 8.78394C117.766 8.48154 117.623 7.97274 117.623 7.25874V4.40634H116.775V3.46434H117.623V2.42754L118.887 2.05554V3.46314H120.307V4.40634H120.309Z" fill="white"/>
<path d="M127.135 9.12068H125.844V5.90469C125.844 4.89069 125.455 4.38309 124.676 4.38309C124.078 4.38309 123.669 4.67709 123.445 5.26509C123.407 5.38869 123.385 5.53989 123.385 5.71749V9.11949H122.097V0.868286H123.385V4.27749H123.41C123.816 3.65709 124.398 3.34749 125.153 3.34749C125.687 3.34749 126.129 3.51789 126.479 3.85989C126.916 4.28589 127.135 4.91949 127.135 5.75709V9.12068Z" fill="white"/>
<path d="M134.18 6.02457C134.18 6.25017 134.163 6.43977 134.132 6.59457H130.264C130.281 7.15377 130.465 7.57977 130.824 7.87497C131.151 8.13897 131.573 8.27097 132.09 8.27097C132.662 8.27097 133.184 8.18217 133.654 8.00337L133.856 8.87697C133.306 9.10977 132.659 9.22617 131.909 9.22617C131.011 9.22617 130.303 8.96817 129.791 8.45217C129.277 7.93617 129.022 7.24377 129.022 6.37497C129.022 5.52177 129.259 4.81137 129.738 4.24497C130.238 3.64017 130.913 3.33777 131.766 3.33777C132.601 3.33777 133.235 3.64017 133.663 4.24497C134.009 4.72497 134.18 5.31897 134.18 6.02457ZM132.949 5.69937C132.959 5.32617 132.874 5.00457 132.699 4.73337C132.475 4.38417 132.134 4.20897 131.673 4.20897C131.252 4.20897 130.909 4.37937 130.646 4.72137C130.432 4.99377 130.305 5.31897 130.264 5.69937H132.949Z" fill="white"/>
</svg>
