<svg width="47" height="46" viewBox="0 0 47 46" fill="none" xmlns="http://www.w3.org/2000/svg">
<path d="M22.0161 28.1624V30.5927L20.6706 32.7674L21.3433 34.5273L20.6706 36.8738L22.0161 34.5273L21.3433 32.516L23.0252 31.347L23.6139 32.7674L23.0252 35.1139L24.539 37.6238L23.6139 40.6408L25.0435 38.2105L25.8803 40.6408L24.9594 46L26.3008 41.9816L27.4781 43.1507V46L28.0667 43.6535L30.8419 46L28.1508 42.652L26.8053 40.8922L25.7541 38.1267L29.16 40.1379L29.6646 42.4006L29.7487 40.3055L33.3605 42.233L32.2673 46L33.8651 42.652L35.2106 43.0669L34.8743 45.9413L35.547 43.4021L37.8975 45.9413L36.2156 43.2345L33.8651 41.6464L35.547 41.5626L33.0242 40.976L29.6646 39.2999L25.7962 36.4548L24.9594 34.5273L25.7121 32.4322L24.1185 29.8385L24.7912 28.1624L25.5481 30.5089L27.3099 32.1012L27.0576 35.8682L27.8986 32.6836L30.3373 36.2872L35.4629 38.3781L38.6543 42.652L37.3088 39.8865L40.3362 41.4788L39.9998 46L40.8408 42.4844L42.6867 43.3183V45.9413L43.2754 43.4021L46.0505 46L43.7799 43.0669L41.3454 41.7302L43.4435 41.4788L46.0505 40.8922L43.2754 40.976L40.7567 40.6408L36.8042 38.2943L38.7384 38.3781L35.2947 37.4604L31.4263 35.7843L29.4123 33.0188L33.3605 33.9407L34.5379 36.2034L34.1174 34.0245L35.6311 34.4435L38.1498 36.7062L35.6311 33.7731L29.6646 32.1012L26.8053 30.1737L29.4123 30.5927L33.3605 30.0061L35.4629 31.5984L33.3605 29.4195L29.16 29.6709L25.7121 27.492L29.16 28.5814L31.1741 28.2462L29.0759 28.0786L27.6463 26.9096L30.5896 27.2406L34.5379 29.0005L38.6543 30.1737L40.4203 35.4491L42.0139 38.6295L41.009 35.3653L42.939 36.4548L46.0505 39.5513L43.3594 36.1196L46.0505 35.952L42.939 35.6167L40.8408 34.7787L40.0839 30.6765L42.7708 31.347L46.0505 33.7731L43.5276 31.1793L46.0505 30.7603L42.939 30.8441L39.4953 29.5033L35.7152 28.4976L34.622 27.4082L39.4112 26.9096L42.6026 27.911L46.0505 27.6596L42.939 27.4082L39.4112 25.9877L33.3605 26.742L29.4123 25.9877H26.2167L24.2026 24.7307L24.3708 23.0546L26.4689 21.4665L26.9735 18.701L25.6322 21.2151L23.6139 22.468L24.6231 21.1313L24.7912 20.0419L24.6231 18.0306L26.3848 15.1016L24.9594 12.0847L25.7121 15.0178L23.6139 17.6116V19.7904L22.6048 20.7123L21.5956 18.4496L22.0161 16.9411L20.0861 13.5932L21.0911 17.1087L20.5865 19.3714L21.5115 22.3004L19.3293 19.8743L20.3384 22.049L20.6706 23.8088L19.3293 25.5687L16.1336 25.9877L11.849 25.0659L3.4479 27.3998L0 27.1568L3.11152 27.7434L1.6819 29.0424L0 29.4195L1.51371 29.3357L1.34552 30.8441L2.35466 29.0424L4.20476 27.6596L11.008 26.4612L14.2037 26.9934L11.3444 28.5814L6.63931 28.4138L10.3353 29.0424L7.98483 30.5089L2.85923 32.0174L0 33.6893L2.69104 32.6836L2.43876 34.4435L0 36.1196L2.43876 34.8625L2.60695 36.8738L2.94333 34.4435L3.78428 32.7674L5.96655 32.185L5.1256 36.5386L2.60695 39.8865L0 40.976L2.52285 40.557L2.35466 43.4021L0 46L2.18647 43.9887L2.35466 46L2.69104 43.7373L3.19561 40.3055L5.63017 37.2928L7.05979 39.2161L5.1256 42.8993L4.70512 46L5.54607 43.2345L7.39617 39.8027L8.65759 41.7302L7.31207 44.0725L7.56436 46L7.64845 44.4077L8.90988 46L7.81664 43.9887L9.49855 41.5626L8.06893 38.8809L10.7558 39.1323L11.9331 41.5626L11.2603 38.5457L7.81664 38.1267L6.38703 35.952L7.31207 32.185L9.24626 31.6822L11.9331 29.8385L15.2927 28.4138L17.5633 26.4067L17.1428 28.2462L15.4609 29.0424L17.7315 28.6652L18.8247 26.9096H20.9229L19.2452 29.0424L16.8064 30.5927L14.0355 30.2575L11.1762 32.3484L14.2037 30.7603L16.7223 31.347L19.4134 30.0899L18.7406 32.0174L14.8764 33.1864L8.99397 34.1921L7.90074 36.371L9.33036 34.7787L13.2786 34.2759L11.3444 35.7843L10.924 37.3766L11.4285 36.2034L14.2037 34.1921L15.6291 34.0245L15.2927 37.7914L13.4468 39.8865L12.1854 46L13.5309 42.4006L14.54 43.0669L15.0446 45.9413L15.1287 42.8155L13.9514 41.3112L14.2878 39.8865L16.1336 38.0429L16.8064 34.1083L18.4042 33.1026L18.9088 36.1196L16.8905 40.976L17.1428 46L17.6474 42.233L18.8247 43.8211L18.5724 46L19.2452 43.4859L17.8155 40.8922L18.4883 39.0485L20.6706 40.4732L21.5115 43.3183L20.6706 46L22.0161 43.3183L21.007 39.8027L19.1611 38.2105L20.1702 36.0358L19.4975 32.7674L20.6706 30.4251L22.0161 28.1624Z" fill="white"/>
<path d="M23.0249 16.7482L24.0342 15.1851L23.0249 13.0059L22.0156 14.8749L23.0249 16.7482Z" fill="white"/>
<path d="M24.0361 13.0085L23.3633 11.4999L23.6997 9.15723L24.7637 10.9425L24.0361 13.0085Z" fill="white"/>
<path d="M21.7631 13.6785L22.0996 12.3123L21.0903 10.1038L20.6445 12.3123L21.7631 13.6785Z" fill="white"/>
<path d="M23.6166 7.70643L22.6367 5.97564L23.6166 4.13171L24.0623 6.8096L23.6166 7.70643Z" fill="white"/>
<path d="M24.7622 6.25238L24.4805 3.23923L25.7126 1.34082L26.2173 3.62897L24.7622 6.25238Z" fill="white"/>
<path d="M24.9846 9.8815L24.7617 8.03757L26.1074 5.58179L26.8896 7.89927L24.9846 9.8815Z" fill="white"/>
<path d="M26.552 13.1195L25.7109 11.2505L27.002 8.95813L27.5613 11.2086L26.552 13.1195Z" fill="white"/>
<path d="M27.5632 15.408L27.0586 13.8448L28.2908 12.0847L29.4682 13.7484L27.5632 15.408Z" fill="white"/>
<path d="M26.2148 18.1981L26.6354 16.7481L28.6245 15.7968V16.9995L26.2148 18.1981Z" fill="white"/>
<path d="M27.5632 8.95946L27.0586 5.80801L28.8543 4.13171L29.0772 5.91697L27.5632 8.95946Z" fill="white"/>
<path d="M28.2656 10.941V9.21019L29.9183 6.47363L30.5323 8.87493L28.2656 10.941Z" fill="white"/>
<path d="M29.9187 13.0063L29.4688 11.2504L32.2695 8.87427V11.2085L29.9187 13.0063Z" fill="white"/>
<path d="M29.4688 16.7497L29.9187 14.8764L32.7195 14.2101L31.992 16.3013L29.4688 16.7497Z" fill="white"/>
<path d="M30.8672 13.748V13.0062L33.054 11.6652V13.2283L30.8672 13.748Z" fill="white"/>
<path d="M33.4453 14.0679L34.341 11.6666L37.0871 9.88135L36.0779 13.0076L33.4453 14.0679Z" fill="white"/>
<path d="M33.0547 16.7493L33.7822 15.073L36.1372 13.8451L35.4349 16.3595L33.0547 16.7493Z" fill="white"/>
<path d="M27.5625 20.0971V19.0368L29.9175 17.809L29.0764 19.5397L27.5625 20.0971Z" fill="white"/>
<path d="M26.6367 22.7203L27.4231 21.3824H30.1398L28.2642 22.4435L26.6367 22.7203Z" fill="white"/>
<path d="M29.918 22.4982L31.0913 23.056L33.728 22.0495L30.5319 21.7181L29.918 22.4982Z" fill="white"/>
<path d="M29.2266 20.5466L29.9162 19.6533H31.0895L30.1938 20.5466H29.2266Z" fill="white"/>
<path d="M30.5312 18.7568L30.8677 17.809H32.718L31.9611 18.7568H30.5312Z" fill="white"/>
<path d="M31.2852 20.8812L32.715 19.6533H34.4223L33.022 21.0488L31.2852 20.8812Z" fill="white"/>
<path d="M33.0547 18.7554L33.7822 17.8083L35.4349 17.3054L34.9008 18.7554H33.0547Z" fill="white"/>
<path d="M34.2422 21.3838L35.4323 20.0963H37.1397L36.6939 21.0483L34.2422 21.3838Z" fill="white"/>
<path d="M34.4258 22.385L36.3014 23.056L38.3199 22.0495L36.3729 21.7181L34.4258 22.385Z" fill="white"/>
<path d="M37.8711 21.0481H39.3808L40.3901 19.9871L38.5986 20.0961L37.8711 21.0481Z" fill="white"/>
<path d="M39.2734 22.051L40.9514 21.0487L42.4653 21.3842L40.9514 22.3866L39.2734 22.051Z" fill="white"/>
<path d="M42.6875 21.0483L43.6968 20.0963H44.8196L43.9197 21.0483H42.6875Z" fill="white"/>
<path d="M42.6875 22.0495L44.5925 21.7181L46.0518 22.385L44.5378 22.7205L42.6875 22.0495Z" fill="white"/>
<path d="M44.1992 19.3155L45.2632 19.651L46.0496 18.7535H45.0403L44.1992 19.3155Z" fill="white"/>
<path d="M41.0352 20.0976L42.0739 20.3493L43.3607 19.2043H41.5692L41.0352 20.0976Z" fill="white"/>
<path d="M35.4336 19.2036L37.4774 19.4257L39.3572 17.0244L37.0569 17.6111L35.4336 19.2036Z" fill="white"/>
<path d="M38.9609 19.2023L39.6086 17.92L41.3706 17.6099L40.8113 18.645L38.9609 19.2023Z" fill="white"/>
<path d="M36.2188 16.7476L36.8075 14.9875L38.9648 13.9817C38.9648 13.9817 38.6831 16.0184 38.6578 16.0184C38.6284 16.0226 36.2188 16.7476 36.2188 16.7476Z" fill="white"/>
<path d="M37.0586 13.4557L37.088 12.3116L39.4977 11.1089L39.3 12.8397L37.0586 13.4557Z" fill="white"/>
<path d="M39.6094 16.4427L40.1939 13.9827L43.3605 13.3416L42.4648 15.5207L39.6094 16.4427Z" fill="white"/>
<path d="M41.6523 17.1682L42.1822 16.3294L44.2008 15.9939L43.2462 16.9711L41.6523 17.1682Z" fill="white"/>
<path d="M41.6953 18.7442L42.2672 17.809H43.4153L42.8854 18.6477L41.6953 18.7442Z" fill="white"/>
<path d="M43.582 18.5637L44.8731 18.4085L46.0506 17.4733H44.5366L43.582 18.5637Z" fill="white"/>
<path d="M44.6523 20.8494L45.2958 20.5432L46.0527 20.6942L45.5186 21.1555L44.6523 20.8494Z" fill="white"/>
<path d="M43.4141 15.2693L44.171 13.748L46.0508 13.2284L45.2938 14.7245L43.4141 15.2693Z" fill="white"/>
<path d="M44.6523 16.3293L45.2958 15.6289H46.0527L45.5186 16.3167L44.6523 16.3293Z" fill="white"/>
<path d="M40.0547 13.0066L42.3676 12.709L43.4148 10.6639L40.5299 11.2087L40.0547 13.0066Z" fill="white"/>
<path d="M43.8906 12.5882L43.9159 11.6663L46.048 11.1089L45.291 12.4499L43.8906 12.5882Z" fill="white"/>
<path d="M43.918 10.438L44.1156 8.76592L46.0501 7.89844L45.516 10.1321L43.918 10.438Z" fill="white"/>
<path d="M40.7812 10.1877L43.0227 9.5465L43.275 7.34216L40.7812 8.57005V10.1877Z" fill="white"/>
<path d="M37.8711 10.7723L39.4944 10.437L39.8308 8.76489L38.1781 9.48989L37.8711 10.7723Z" fill="white"/>
<path d="M43.7227 8.09685L43.9161 7.14484L44.7992 6.80933L44.5343 7.70682L43.7227 8.09685Z" fill="white"/>
<path d="M45.2109 7.45597L45.4044 6.81011L46.052 6.5459L45.7997 7.45597H45.2109Z" fill="white"/>
<path d="M44.7344 6.28173L45.5166 6.03009L46.0506 5.02356L44.9825 5.24584L44.7344 6.28173Z" fill="white"/>
<path d="M42.4336 6.9974L43.7246 6.5448L44.2629 5.02356L42.6607 5.65217L42.4336 6.9974Z" fill="white"/>
<path d="M33.332 10.7728L35.0983 10.0185L36.2169 7.7052L33.5591 8.26257L33.332 10.7728Z" fill="white"/>
<path d="M36.9492 8.76524L37.5926 6.6992L39.6112 5.91553L39.3589 8.09472L36.9492 8.76524Z" fill="white"/>
<path d="M40.3906 7.816L40.6724 5.33088L42.548 3.15588L41.6943 6.6845L40.3906 7.816Z" fill="white"/>
<path d="M31.3398 8.31788L31.2305 5.91658L33.7789 3.76672L33.4971 6.54519L31.3398 8.31788Z" fill="white"/>
<path d="M30.1955 6.0427L31.2342 4.71842L30.8684 2.62305L29.918 4.68909L30.1955 6.0427Z" fill="white"/>
<path d="M27.2268 4.63315L28.6272 2.78922L28.2655 0.111328L27.0586 2.345L27.2268 4.63315Z" fill="white"/>
<path d="M26.6354 1.50867L26.9466 0.89263L26.6354 0L26.2148 0.754335L26.6354 1.50867Z" fill="white"/>
<path d="M23.6124 2.98618L24.1717 2.03488L23.1372 0.111328L22.8555 1.84211L23.6124 2.98618Z" fill="white"/>
<path d="M24.7622 1.50867L25.2374 0.754335L24.7622 0L24.4805 0.89263L24.7622 1.50867Z" fill="white"/>
<path d="M29.4653 3.74339L29.0742 1.67735L29.9153 0.86853L30.0835 2.23472L29.4653 3.74339Z" fill="white"/>
<path d="M30.5715 2.17737L30.3906 0.752513L30.7271 0.111328L31.2317 0.865663L30.5715 2.17737Z" fill="white"/>
<path d="M31.762 3.76727L31.5938 2.51423L32.6871 1.34082L32.8259 2.98779L31.762 3.76727Z" fill="white"/>
<path d="M32.2135 0.111328L31.7383 0.865663L31.9612 1.50685L32.5079 0.752513L32.2135 0.111328Z" fill="white"/>
<path d="M34.1479 0.111328L33.332 1.00396L33.5591 2.03488L34.3708 1.07101L34.1479 0.111328Z" fill="white"/>
<path d="M35.8811 0.86853L34.3672 2.43168V4.33428L35.5699 2.98905L35.8811 0.86853Z" fill="white"/>
<path d="M36.2133 3.96387L34.6195 5.31748L34.3672 7.20332L36.4951 6.54537L36.2133 3.96387Z" fill="white"/>
<path d="M38.1204 3.62817L37.0859 4.33222L37.3677 5.65231L38.684 5.31705L38.1204 3.62817Z" fill="white"/>
<path d="M36.7521 3.40813L37.8749 2.79209V0.86853L36.6133 2.5574L36.7521 3.40813Z" fill="white"/>
<path d="M36.3828 1.69962V0.865663L37.0557 0.111328L37.2407 1.07101L36.3828 1.69962Z" fill="white"/>
<path d="M38.2734 2.13546V0.806993L39.493 0.111328V1.1213L38.2734 2.13546Z" fill="white"/>
<path d="M38.6836 3.62878V2.87444L39.6088 1.96924L39.4952 3.07141L38.6836 3.62878Z" fill="white"/>
<path d="M39.3254 5.02399L39.1445 4.13136L40.9486 2.79871L40.6416 4.33252L39.3254 5.02399Z" fill="white"/>
<path d="M41.7073 3.15542L41.5938 2.03648L42.5484 1.34082L42.603 2.58128L41.7073 3.15542Z" fill="white"/>
<path d="M40.2773 2.24606L41.1184 2.03652L40.782 0.741577L40.2773 1.55039V2.24606Z" fill="white"/>
<path d="M41.3167 1.34014L41.2031 0.752992L41.9054 0.111328L42.0316 0.723635L41.3167 1.34014Z" fill="white"/>
<path d="M43.1094 1.23948V0.388125L44.2658 0.111328L43.921 0.903972L43.1094 1.23948Z" fill="white"/>
<path d="M43.0195 2.79893V1.88534L44.0288 1.45789L43.9153 2.37147L43.0195 2.79893Z" fill="white"/>
<path d="M42.8867 4.63941L43.139 3.62944L44.0348 3.15588L43.9212 4.13233L42.8867 4.63941Z" fill="white"/>
<path d="M44.4805 4.13188L44.9809 2.55616L46.0491 2.13708L45.6285 3.76729L44.4805 4.13188Z" fill="white"/>
<path d="M44.4805 2.03488L45.6285 1.54876L45.9061 0.111328L44.8001 0.90338L44.4805 2.03488Z" fill="white"/>
<path d="M22.3857 10.6353L22.9828 9.48287L22.6843 7.97839L21.9609 8.97998L22.3857 10.6353Z" fill="white"/>
<path d="M21.291 6.25238L21.5727 3.23923L20.3406 1.34082L19.8359 3.62897L21.291 6.25238Z" fill="white"/>
<path d="M21.0652 9.8815L21.2881 8.03757L19.9423 5.58179L19.1602 7.89927L21.0652 9.8815Z" fill="white"/>
<path d="M19.4976 13.1195L20.0022 10.9152L19.0476 8.95813L18.4883 11.2086L19.4976 13.1195Z" fill="white"/>
<path d="M19.1589 15.408L18.9907 13.5096L17.7585 12.0847L17.2539 14.419L19.1589 15.408Z" fill="white"/>
<path d="M19.8354 18.7554L20.0878 16.966L17.4258 15.7968V17.2761L19.8354 18.7554Z" fill="white"/>
<path d="M18.4866 8.95946L18.9912 5.80801L17.1955 4.13171L16.9727 5.91697L18.4866 8.95946Z" fill="white"/>
<path d="M17.7862 10.941V9.21019L16.1335 6.47363L15.5195 8.87493L17.7862 10.941Z" fill="white"/>
<path d="M16.132 13.0063L16.582 11.2504L13.7812 8.87427V11.2085L16.132 13.0063Z" fill="white"/>
<path d="M16.5828 16.7497L16.1328 14.8764L13.332 14.2101L14.0596 16.3013L16.5828 16.7497Z" fill="white"/>
<path d="M15.1829 13.748V13.0062L12.9961 11.6652V13.2283L15.1829 13.748Z" fill="white"/>
<path d="M12.6067 14.0679L11.7109 11.6666L8.96484 9.88135L9.97412 13.0076L12.6067 14.0679Z" fill="white"/>
<path d="M12.9966 16.7493L12.269 15.073L9.91406 13.8451L10.6164 16.3595L12.9966 16.7493Z" fill="white"/>
<path d="M18.4878 20.0971V19.0368L16.1328 17.809L16.9739 19.5397L18.4878 20.0971Z" fill="white"/>
<path d="M19.4132 22.7203L18.6268 21.3824H15.9102L17.7857 22.4435L19.4132 22.7203Z" fill="white"/>
<path d="M16.1343 22.4982L14.961 23.056L12.3242 22.0495L15.5203 21.7181L16.1343 22.4982Z" fill="white"/>
<path d="M16.8239 20.5466L16.1342 19.6533H14.9609L15.8567 20.5466H16.8239Z" fill="white"/>
<path d="M15.5188 18.7568L15.1824 17.809H13.332L14.089 18.7568H15.5188Z" fill="white"/>
<path d="M14.7622 20.8812L13.3324 19.6533H11.625L13.0254 21.0488L14.7622 20.8812Z" fill="white"/>
<path d="M12.9974 18.7554L12.2699 17.8083L10.6172 17.3054L11.1513 18.7554H12.9974Z" fill="white"/>
<path d="M11.8076 21.3838L10.6175 20.0963H8.91016L9.35592 21.0483L11.8076 21.3838Z" fill="white"/>
<path d="M11.6285 22.385L9.75294 23.056L7.73438 22.0495L9.68144 21.7181L11.6285 22.385Z" fill="white"/>
<path d="M8.17915 21.0481H6.66944L5.66016 19.9871L7.45163 20.0961L8.17915 21.0481Z" fill="white"/>
<path d="M6.77779 22.051L5.09986 21.0487L3.58594 21.3842L5.09986 22.3866L6.77779 22.051Z" fill="white"/>
<path d="M3.36257 21.0483L2.35329 20.0963H1.23047L2.13041 21.0483H3.36257Z" fill="white"/>
<path d="M3.36427 22.0495L1.45925 21.7181L0 22.385L1.51392 22.7205L3.36427 22.0495Z" fill="white"/>
<path d="M1.85035 19.3155L0.786396 19.651L0 18.7535H1.00928L1.85035 19.3155Z" fill="white"/>
<path d="M5.01695 20.0976L3.97824 20.3493L2.69141 19.2043H4.48288L5.01695 20.0976Z" fill="white"/>
<path d="M10.6189 19.2036L8.5751 19.4257L6.69531 17.0244L8.99563 17.6111L10.6189 19.2036Z" fill="white"/>
<path d="M7.08935 19.2023L6.44172 17.92L4.67969 17.6099L5.239 18.645L7.08935 19.2023Z" fill="white"/>
<path d="M9.83593 16.7476L9.24718 14.9875L7.08984 13.9817C7.08984 13.9817 7.3716 16.0184 7.39684 16.0184C7.42627 16.0226 9.83593 16.7476 9.83593 16.7476Z" fill="white"/>
<path d="M8.99378 13.4557L8.96434 12.3116L6.55469 11.1089L6.75234 12.8397L8.99378 13.4557Z" fill="white"/>
<path d="M6.44256 16.4427L5.85802 13.9827L2.69141 13.3416L3.58714 15.5207L6.44256 16.4427Z" fill="white"/>
<path d="M4.39999 17.1682L3.87012 16.3294L1.85156 15.9939L2.80617 16.9711L4.39999 17.1682Z" fill="white"/>
<path d="M4.3567 18.7442L3.78478 17.809H2.63672L3.16659 18.6477L4.3567 18.7442Z" fill="white"/>
<path d="M2.46853 18.5637L1.17749 18.4085L0 17.4733H1.51392L2.46853 18.5637Z" fill="white"/>
<path d="M1.40038 20.8494L0.75696 20.5432L0 20.6942L0.534076 21.1555L1.40038 20.8494Z" fill="white"/>
<path d="M2.63674 15.2693L1.87978 13.748L0 13.2284L0.75696 14.7245L2.63674 15.2693Z" fill="white"/>
<path d="M1.40038 16.3293L0.75696 15.6289H0L0.534076 16.3167L1.40038 16.3293Z" fill="white"/>
<path d="M5.99678 13.0066L3.68385 12.709L2.63672 10.6639L5.52158 11.2087L5.99678 13.0066Z" fill="white"/>
<path d="M2.15734 12.5882L2.1321 11.6663L0 11.1089L0.75696 12.4499L2.15734 12.5882Z" fill="white"/>
<path d="M2.1321 10.438L1.93445 8.76592L0 7.89844L0.534075 10.1321L2.1321 10.438Z" fill="white"/>
<path d="M5.2672 10.1877L3.02576 9.5465L2.77344 7.34216L5.2672 8.57005V10.1877Z" fill="white"/>
<path d="M8.17844 10.7723L6.55518 10.437L6.21875 8.76489L7.87144 9.48989L8.17844 10.7723Z" fill="white"/>
<path d="M2.32657 8.09685L2.13312 7.14484L1.25 6.80933L1.51494 7.70682L2.32657 8.09685Z" fill="white"/>
<path d="M0.841067 7.45597L0.64762 6.81011L0 6.5459L0.25232 7.45597H0.841067Z" fill="white"/>
<path d="M1.31627 6.28173L0.534076 6.03009L0 5.02356L1.06815 5.24584L1.31627 6.28173Z" fill="white"/>
<path d="M3.61448 6.9974L2.32344 6.5448L1.78516 5.02356L3.38739 5.65217L3.61448 6.9974Z" fill="white"/>
<path d="M12.7208 10.7728L10.9546 10.0185L9.83594 7.7052L12.4937 8.26257L12.7208 10.7728Z" fill="white"/>
<path d="M9.10339 8.76524L8.45997 6.6992L6.44141 5.91553L6.69373 8.09472L9.10339 8.76524Z" fill="white"/>
<path d="M5.66125 7.816L5.37949 5.33088L3.50391 3.15588L4.35759 6.6845L5.66125 7.816Z" fill="white"/>
<path d="M14.7086 8.31788L14.818 5.91658L12.2695 3.76672L12.5513 6.54519L14.7086 8.31788Z" fill="white"/>
<path d="M15.8551 6.0427L14.8164 4.71842L15.1823 2.62305L16.1327 4.68909L15.8551 6.0427Z" fill="white"/>
<path d="M18.8262 4.63315L17.4258 2.78922L17.7874 0.111328L18.9944 2.345L18.8262 4.63315Z" fill="white"/>
<path d="M19.4128 1.50867L19.1016 0.89263L19.4128 0L19.8333 0.754335L19.4128 1.50867Z" fill="white"/>
<path d="M22.757 4.99489L22.0547 4.2196L22.2565 2.14099L22.9841 3.7251L22.757 4.99489Z" fill="white"/>
<path d="M21.6626 2.14147L20.8594 1.06864L21.6626 0L22.1378 1.2698L21.6626 2.14147Z" fill="white"/>
<path d="M16.583 3.74339L16.9741 1.67735L16.1331 0.86853L15.9648 2.23472L16.583 3.74339Z" fill="white"/>
<path d="M15.4766 2.17737L15.6575 0.752513L15.321 0.111328L14.8164 0.865663L15.4766 2.17737Z" fill="white"/>
<path d="M14.2905 3.76727L14.4587 2.51423L13.3653 1.34082L13.2266 2.98779L14.2905 3.76727Z" fill="white"/>
<path d="M13.8373 0.111328L14.3125 0.865663L14.0897 1.50685L13.543 0.752513L13.8373 0.111328Z" fill="white"/>
<path d="M11.9026 0.111328L12.7184 1.00396L12.4913 2.03488L11.6797 1.07101L11.9026 0.111328Z" fill="white"/>
<path d="M10.168 0.86853L11.6819 2.43168V4.33428L10.4792 2.98905L10.168 0.86853Z" fill="white"/>
<path d="M9.83254 3.96387L11.4264 5.31748L11.6787 7.20332L9.55078 6.54537L9.83254 3.96387Z" fill="white"/>
<path d="M7.9307 3.62817L8.96521 4.33222L8.68346 5.65231L7.36719 5.31705L7.9307 3.62817Z" fill="white"/>
<path d="M9.30251 3.40813L8.17969 2.79209V0.86853L9.44129 2.5574L9.30251 3.40813Z" fill="white"/>
<path d="M9.66648 1.69962V0.865663L8.99363 0.111328L8.80859 1.07101L9.66648 1.69962Z" fill="white"/>
<path d="M7.77423 2.13546V0.806993L6.55469 0.111328V1.1213L7.77423 2.13546Z" fill="white"/>
<path d="M7.36658 3.62878V2.87444L6.44141 1.96924L6.55495 3.07141L7.36658 3.62878Z" fill="white"/>
<path d="M6.72483 5.02399L6.90565 4.13136L5.10156 2.79871L5.40855 4.33252L6.72483 5.02399Z" fill="white"/>
<path d="M4.34495 3.15542L4.4585 2.03648L3.50389 1.34082L3.44922 2.58128L4.34495 3.15542Z" fill="white"/>
<path d="M5.77075 2.24606L4.92969 2.03652L5.26611 0.741577L5.77075 1.55039V2.24606Z" fill="white"/>
<path d="M4.73444 1.34014L4.84798 0.752992L4.14569 0.111328L4.01953 0.723635L4.73444 1.34014Z" fill="white"/>
<path d="M2.94162 1.23948V0.388125L1.78516 0.111328L2.12999 0.903972L2.94162 1.23948Z" fill="white"/>
<path d="M3.02491 2.79893V1.88534L2.01562 1.45789L2.12917 2.37147L3.02491 2.79893Z" fill="white"/>
<path d="M3.16368 4.63941L2.91136 3.62944L2.01562 3.15588L2.12917 4.13233L3.16368 4.63941Z" fill="white"/>
<path d="M1.56859 4.13188L1.06815 2.55616L0 2.13708L0.420533 3.76729L1.56859 4.13188Z" fill="white"/>
<path d="M1.56623 2.03488L0.418179 1.54876L0.140625 0.111328L1.24663 0.90338L1.56623 2.03488Z" fill="white"/>
</svg>
