<svg width="20" height="20" viewBox="0 0 20 20" fill="none" xmlns="http://www.w3.org/2000/svg">
<path d="M10 17.125C14.1421 17.125 17.5 13.8511 17.5 9.8125C17.5 5.77392 14.1421 2.5 10 2.5C5.85786 2.5 2.5 5.77392 2.5 9.8125C2.5 13.8511 5.85786 17.125 10 17.125Z" fill="white"/>
<path d="M10 1.2561C5.17525 1.2561 1.25 5.11685 1.25 9.86223C1.25 11.3414 1.63787 12.8002 2.37175 14.0811C2.4795 14.2691 2.50775 14.4846 2.45138 14.6875C2.237 15.4586 1.89775 16.695 1.68362 17.4764C1.62587 17.6867 1.6685 17.9065 1.80025 18.0792C1.93087 18.2505 2.13613 18.3527 2.34925 18.3527C2.40912 18.3527 2.46925 18.3449 2.52787 18.3294C3.36275 18.1095 4.8765 17.7142 5.634 17.537C5.693 17.5231 5.75362 17.5161 5.814 17.5161C5.9305 17.5161 6.04725 17.5427 6.15175 17.5931C7.35512 18.1736 8.64987 18.468 10 18.468C14.8247 18.468 18.75 14.6074 18.75 9.86185C18.75 5.11635 14.8247 1.2561 10 1.2561ZM14.814 13.4437C14.6012 14.0399 13.5815 14.5839 13.091 14.6572C12.6511 14.7229 12.0947 14.7502 11.4832 14.5561C11.1125 14.4385 10.637 14.2815 10.028 14.0185C7.46737 12.9132 5.795 10.3357 5.66737 10.1654C5.53962 9.9951 4.625 8.7816 4.625 7.5256C4.625 6.2696 5.28438 5.65223 5.51837 5.39673C5.75238 5.14123 6.02887 5.07735 6.19913 5.07735C6.36925 5.07735 6.53962 5.07898 6.68837 5.08635C6.84512 5.0941 7.0555 5.02685 7.26263 5.52448C7.47538 6.03535 7.98588 7.29135 8.04963 7.41923C8.1135 7.54685 8.156 7.69598 8.071 7.86623C7.98588 8.03648 7.94338 8.14298 7.81575 8.29198C7.68813 8.44098 7.54775 8.62473 7.43288 8.73898C7.30513 8.86623 7.172 9.00435 7.32088 9.25985C7.46987 9.51535 7.98213 10.3511 8.741 11.0277C9.716 11.8971 10.5384 12.1666 10.7938 12.2942C11.049 12.422 11.1979 12.4006 11.3468 12.2304C11.4958 12.06 11.9849 11.4852 12.1551 11.2297C12.3254 10.9742 12.4955 11.0169 12.7295 11.102C12.9634 11.1872 14.2184 11.8045 14.4738 11.9322C14.729 12.0601 14.8991 12.124 14.963 12.2304C15.0266 12.3367 15.0266 12.8476 14.814 13.4437Z" fill="#212121"/>
</svg>
