<svg width="20" height="20" viewBox="0 0 20 20" fill="none" xmlns="http://www.w3.org/2000/svg">
<path d="M4.24974 17.5C4.03837 17.5 3.83412 17.4234 3.67462 17.2843C3.31112 16.967 3.27349 16.4131 3.59074 16.0498L8.76374 10.0858L9.87462 11.4744L4.90924 17.2004C4.74312 17.3908 4.50274 17.5 4.24974 17.5ZM10.1254 8.52563L15.0907 2.79963C15.2569 2.60925 15.4972 2.49988 15.7502 2.49988C15.9616 2.49988 16.166 2.5765 16.3254 2.71575C16.6889 3.033 16.7265 3.58688 16.4092 3.95025L11.2362 9.91425L10.1254 8.52563Z" fill="#212121"/>
<path d="M17.363 16.4845L6.36305 2.7345C6.24455 2.58625 6.06492 2.5 5.87505 2.5H3.12505C2.8848 2.5 2.6658 2.63775 2.5618 2.85425C2.4578 3.07075 2.48692 3.32788 2.63705 3.5155L13.637 17.2655C13.7555 17.4137 13.9352 17.5 14.125 17.5H16.875C17.1153 17.5 17.3343 17.3622 17.4383 17.1457C17.5423 16.9292 17.5132 16.6721 17.363 16.4845Z" fill="#212121"/>
</svg>
