<svg width="143" height="33" viewBox="0 0 143 33" fill="none" xmlns="http://www.w3.org/2000/svg">
<path d="M46.4318 4.29217C46.4318 5.29417 46.1246 6.09667 45.5192 6.69517C44.8233 7.40467 43.9168 7.76167 42.8061 7.76167C41.7444 7.76167 40.838 7.39867 40.0944 6.68317C39.3493 5.95717 38.9775 5.06617 38.9775 3.99967C38.9775 2.93317 39.3493 2.04217 40.0944 1.32217C40.838 0.600672 41.7444 0.237671 42.8061 0.237671C43.3346 0.237671 43.8385 0.344171 44.3194 0.542171C44.7987 0.741671 45.1889 1.01167 45.4716 1.34467L44.8294 1.97767C44.3363 1.40917 43.6649 1.12867 42.8061 1.12867C42.0317 1.12867 41.3604 1.39267 40.7904 1.92517C40.2265 2.45917 39.9438 3.15067 39.9438 3.99967C39.9438 4.84867 40.2265 5.54617 40.7904 6.08017C41.3604 6.60667 42.0317 6.87667 42.8061 6.87667C43.628 6.87667 44.3194 6.60667 44.8648 6.07417C45.2243 5.72167 45.4286 5.23567 45.4824 4.61467H42.8061V3.74767H46.3765C46.4195 3.93517 46.4318 4.11667 46.4318 4.29217Z" fill="white" stroke="white" stroke-width="0.16" stroke-miterlimit="10"/>
<path d="M52.0991 1.28645H48.7453V3.56645H51.7688V4.43345H48.7453V6.71345H52.0991V7.59695H47.7958V0.402954H52.0991V1.28645Z" fill="white" stroke="white" stroke-width="0.16" stroke-miterlimit="10"/>
<path d="M56.0974 7.59695H55.1479V1.28645H53.0908V0.402954H58.1561V1.28645H56.0974V7.59695Z" fill="white" stroke="white" stroke-width="0.16" stroke-miterlimit="10"/>
<path d="M61.8186 7.59695V0.402954H62.7665V7.59695H61.8186Z" fill="white" stroke="white" stroke-width="0.16" stroke-miterlimit="10"/>
<path d="M66.9708 7.59695H66.029V1.28645H63.9642V0.402954H69.0356V1.28645H66.9708V7.59695Z" fill="white" stroke="white" stroke-width="0.16" stroke-miterlimit="10"/>
<path d="M78.6271 6.67117C77.9004 7.39867 77.0001 7.76167 75.9262 7.76167C74.8461 7.76167 73.9458 7.39867 73.2191 6.67117C72.494 5.94517 72.1329 5.05417 72.1329 3.99967C72.1329 2.94517 72.494 2.05417 73.2191 1.32817C73.9458 0.600671 74.8461 0.237671 75.9262 0.237671C76.9939 0.237671 77.8942 0.600671 78.6209 1.33417C79.3522 2.06617 79.7133 2.95117 79.7133 3.99967C79.7133 5.05417 79.3522 5.94517 78.6271 6.67117ZM73.9212 6.06817C74.4682 6.60667 75.1334 6.87667 75.9262 6.87667C76.7128 6.87667 77.3842 6.60667 77.925 6.06817C78.4704 5.52967 78.7469 4.83817 78.7469 3.99967C78.7469 3.16117 78.4704 2.46967 77.925 1.93117C77.3842 1.39267 76.7128 1.12267 75.9262 1.12267C75.1334 1.12267 74.4682 1.39267 73.9212 1.93117C73.3758 2.46967 73.0993 3.16117 73.0993 3.99967C73.0993 4.83817 73.3758 5.52967 73.9212 6.06817Z" fill="white" stroke="white" stroke-width="0.16" stroke-miterlimit="10"/>
<path d="M81.0419 7.59695V0.402954H82.1941L85.7769 5.99795H85.8184L85.7769 4.61495V0.402954H86.7248V7.59695H85.7354L81.9836 1.72595H81.9422L81.9836 3.11495V7.59695H81.0419Z" fill="white" stroke="white" stroke-width="0.16" stroke-miterlimit="10"/>
<path d="M71.8972 18.1033C69.0104 18.1033 66.6522 20.2483 66.6522 23.2078C66.6522 26.1433 69.0104 28.3108 71.8972 28.3108C74.7902 28.3108 77.1485 26.1433 77.1485 23.2078C77.1485 20.2483 74.7902 18.1033 71.8972 18.1033ZM71.8972 26.3008C70.3133 26.3008 68.9505 25.0243 68.9505 23.2078C68.9505 21.3673 70.3133 20.1133 71.8972 20.1133C73.4812 20.1133 74.8501 21.3673 74.8501 23.2078C74.8501 25.0243 73.4812 26.3008 71.8972 26.3008ZM60.453 18.1033C57.5601 18.1033 55.2079 20.2483 55.2079 23.2078C55.2079 26.1433 57.5601 28.3108 60.453 28.3108C63.3444 28.3108 65.6981 26.1433 65.6981 23.2078C65.6981 20.2483 63.3444 18.1033 60.453 18.1033ZM60.453 26.3008C58.8675 26.3008 57.5001 25.0243 57.5001 23.2078C57.5001 21.3673 58.8675 20.1133 60.453 20.1133C62.037 20.1133 63.3997 21.3673 63.3997 23.2078C63.3997 25.0243 62.037 26.3008 60.453 26.3008ZM46.8348 19.6678V21.8368H52.1398C51.9847 23.0488 51.5698 23.9398 50.9338 24.5608C50.1595 25.3108 48.9534 26.1433 46.8348 26.1433C43.5701 26.1433 41.0136 23.5708 41.0136 20.3833C41.0136 17.1958 43.5701 14.6233 46.8348 14.6233C48.6001 14.6233 49.8845 15.2968 50.8324 16.1698L52.3979 14.6413C51.0721 13.4053 49.3083 12.4558 46.8348 12.4558C42.3579 12.4558 38.5954 16.0123 38.5954 20.3833C38.5954 24.7543 42.3579 28.3108 46.8348 28.3108C49.2546 28.3108 51.0721 27.5368 52.5009 26.0848C53.965 24.6553 54.4213 22.6453 54.4213 21.0223C54.4213 20.5183 54.3783 20.0548 54.3015 19.6678H46.8348ZM102.521 21.3493C102.09 20.2078 100.758 18.1033 98.0443 18.1033C95.3557 18.1033 93.1173 20.1718 93.1173 23.2078C93.1173 26.0668 95.3327 28.3108 98.3024 28.3108C100.704 28.3108 102.09 26.8813 102.659 26.0488L100.877 24.8893C100.283 25.7383 99.4731 26.3008 98.3024 26.3008C97.1394 26.3008 96.3052 25.7803 95.7705 24.7543L102.762 21.9298L102.521 21.3493ZM95.3926 23.0488C95.3327 21.0808 96.9581 20.0728 98.1227 20.0728C99.0353 20.0728 99.8096 20.5183 100.068 21.1558L95.3926 23.0488ZM89.7096 28.0003H92.008V13.0003H89.7096V28.0003ZM85.9456 19.2403H85.8688C85.3526 18.6433 84.3678 18.1033 83.1203 18.1033C80.5023 18.1033 78.1087 20.3473 78.1087 23.2243C78.1087 26.0848 80.5023 28.3108 83.1203 28.3108C84.3678 28.3108 85.3526 27.7663 85.8688 27.1513H85.9456V27.8833C85.9456 29.8348 84.8778 30.8833 83.1556 30.8833C81.7514 30.8833 80.8803 29.8933 80.5208 29.0608L78.522 29.8753C79.0981 31.2283 80.6237 32.8933 83.1556 32.8933C85.8503 32.8933 88.1241 31.3453 88.1241 27.5788V18.4138H85.9456V19.2403ZM83.3169 26.3008C81.7329 26.3008 80.4071 25.0063 80.4071 23.2243C80.4071 21.4258 81.7329 20.1133 83.3169 20.1133C84.8778 20.1133 86.1084 21.4258 86.1084 23.2243C86.1084 25.0063 84.8778 26.3008 83.3169 26.3008ZM113.282 13.0003H107.785V28.0003H110.077V22.3168H113.282C115.828 22.3168 118.324 20.5183 118.324 17.6578C118.324 14.7988 115.821 13.0003 113.282 13.0003ZM113.342 20.2303H110.077V15.0868H113.342C115.053 15.0868 116.03 16.4743 116.03 17.6578C116.03 18.8188 115.053 20.2303 113.342 20.2303ZM127.511 18.0748C125.855 18.0748 124.133 18.7888 123.425 20.3713L125.459 21.2038C125.897 20.3713 126.702 20.1013 127.553 20.1013C128.742 20.1013 129.948 20.7988 129.967 22.0303V22.1878C129.552 21.9538 128.664 21.6073 127.571 21.6073C125.381 21.6073 123.148 22.7848 123.148 24.9823C123.148 26.9923 124.943 28.2868 126.96 28.2868C128.502 28.2868 129.354 27.6073 129.888 26.8168H129.967V27.9763H132.18V22.2223C132.18 19.5628 130.146 18.0748 127.511 18.0748ZM127.235 26.2948C126.485 26.2948 125.44 25.9318 125.44 25.0243C125.44 23.8633 126.743 23.4178 127.871 23.4178C128.88 23.4178 129.354 23.6353 129.967 23.9218C129.787 25.3108 128.562 26.2948 127.235 26.2948ZM140.246 18.4033L137.611 24.9058H137.533L134.809 18.4033H132.337L136.43 27.4903L134.095 32.5468H136.49L142.797 18.4033H140.246ZM119.584 28.0003H121.882V13.0003H119.584V28.0003Z" fill="white"/>
<path d="M0.978919 1.04689C0.617878 1.41589 0.408936 1.99039 0.408936 2.73439V29.2724C0.408936 30.0164 0.617878 30.5909 0.978919 30.9599L1.06803 31.0409L16.2994 16.1759V15.8249L1.06803 0.959895L0.978919 1.04689Z" fill="url(#paint0_linear_3216_913)"/>
<path d="M21.3735 21.1339L16.302 16.1764V15.8254L21.3796 10.8679L21.4933 10.9324L27.5066 14.2729C29.2227 15.2209 29.2227 16.7809 27.5066 17.7349L21.4933 21.0694L21.3735 21.1339Z" fill="url(#paint1_linear_3216_913)"/>
<path d="M21.4877 21.069L16.2963 16.0005L0.975891 30.96C1.54588 31.545 2.47536 31.6155 3.53237 31.0305L21.4877 21.069Z" fill="url(#paint2_linear_3216_913)"/>
<path d="M21.4877 10.932L3.53237 0.970493C2.47536 0.391493 1.54588 0.461991 0.975891 1.04699L16.2963 16.0005L21.4877 10.932Z" fill="url(#paint3_linear_3216_913)"/>
<defs>
<linearGradient id="paint0_linear_3216_913" x1="14.947" y1="29.5488" x2="-5.1861" y2="8.9278" gradientUnits="userSpaceOnUse">
<stop stop-color="#00A0FF"/>
<stop offset="0.0066" stop-color="#00A1FF"/>
<stop offset="0.2601" stop-color="#00BEFF"/>
<stop offset="0.5122" stop-color="#00D2FF"/>
<stop offset="0.7604" stop-color="#00DFFF"/>
<stop offset="1" stop-color="#00E3FF"/>
</linearGradient>
<linearGradient id="paint1_linear_3216_913" x1="29.7412" y1="15.9992" x2="0.00136657" y2="15.9992" gradientUnits="userSpaceOnUse">
<stop stop-color="#FFE000"/>
<stop offset="0.4087" stop-color="#FFBD00"/>
<stop offset="0.7754" stop-color="#FFA500"/>
<stop offset="1" stop-color="#FF9C00"/>
</linearGradient>
<linearGradient id="paint2_linear_3216_913" x1="18.6648" y1="13.2451" x2="-8.63736" y2="-14.7186" gradientUnits="userSpaceOnUse">
<stop stop-color="#FF3A44"/>
<stop offset="1" stop-color="#C31162"/>
</linearGradient>
<linearGradient id="paint3_linear_3216_913" x1="-2.88058" y1="39.7891" x2="9.31104" y2="27.3021" gradientUnits="userSpaceOnUse">
<stop stop-color="#32A071"/>
<stop offset="0.0685" stop-color="#2DA771"/>
<stop offset="0.4762" stop-color="#15CF74"/>
<stop offset="0.8009" stop-color="#06E775"/>
<stop offset="1" stop-color="#00F076"/>
</linearGradient>
</defs>
</svg>
