<svg width="97" height="114" viewBox="0 0 97 114" fill="none" xmlns="http://www.w3.org/2000/svg">
<path d="M46.4236 58.7527V63.8228L43.6186 68.3597L45.0211 72.0312L43.6186 76.9266L46.4236 72.0312L45.0211 67.8352L48.5273 65.3963L49.7545 68.3597L48.5273 73.2551L51.6829 78.4913L49.7545 84.7853L52.7348 79.7151L54.4791 84.7853L52.5595 95.9659L55.3557 87.5826L57.81 90.0216V95.9659L59.0372 91.0705L64.8224 95.9659L59.2125 88.9813L56.4076 85.3098L54.2162 79.5403L61.3162 83.7363L62.3681 88.4568L62.5434 84.086L70.073 88.1071L67.794 95.9659L71.1249 88.9813L73.9298 89.8467L73.2286 95.8435L74.6311 90.5461L79.531 95.8435L76.0248 90.1964L71.1249 86.8833L74.6311 86.7085L69.3718 85.4846L62.3681 81.988L54.3038 76.0524L52.5595 72.0312L54.1285 67.6604L50.8064 62.2493L52.2089 58.7527L53.7867 63.648L57.4594 66.9698L56.9335 74.8286L58.6866 68.1849L63.7706 75.7027L74.4558 80.0648L81.1088 88.9813L78.3038 83.2118L84.615 86.5336L83.9137 95.9659L85.6669 88.6316L89.5149 90.3712V95.8435L90.7421 90.5461L96.5273 95.9659L91.794 89.8467L86.7187 87.0581L91.0927 86.5336L96.5273 85.3098L90.7421 85.4846L85.4915 84.7853L77.252 79.89L81.2841 80.0648L74.1051 78.1504L66.0409 74.6537L61.8422 68.8842L70.073 70.8074L72.5273 75.5279L71.6508 70.9822L74.8064 71.8564L80.0569 76.5769L74.8064 70.4577L62.3681 66.9698L56.4076 62.9487L61.8422 63.8228L70.073 62.599L74.4558 65.9208L70.073 61.3752L61.3162 61.8997L54.1285 57.354L61.3162 59.6268L65.5149 58.9275L61.1409 58.5778L58.1607 56.1389L64.2965 56.8295L72.5273 60.501L81.1088 62.9487L84.7903 73.9544L88.1124 80.5893L86.0175 73.7796L90.0409 76.0524L96.5273 82.5125L90.9174 75.3531L96.5273 75.0034L90.0409 74.3041L85.6669 72.5557L84.0891 63.9977L89.6902 65.3963L96.5273 70.4577L91.268 65.0466L96.5273 64.1725L90.0409 64.3473L82.8619 61.55L74.9817 59.452L72.7027 57.1792L82.6866 56.1389L89.3396 58.2282L96.5273 57.7037L90.0409 57.1792L82.6866 54.2157L70.073 55.7892L61.8422 54.2157H55.1804L50.9817 51.5932L51.3323 48.0966L55.7063 44.7835L56.7582 39.014L53.962 44.259L49.7545 46.8728L51.8582 44.0842L52.2089 41.8113L51.8582 37.6153L55.531 31.5049L52.5595 25.2109L54.1285 31.3301L49.7545 36.7412V41.2868L47.6508 43.21L45.5471 38.4895L46.4236 35.3425L42.4002 28.3579L44.4952 35.6922L43.4433 40.4127L45.3718 46.5231L40.8224 41.4617L42.9262 45.9986L43.6186 49.6701L40.8224 53.3416L34.1606 54.2157L25.2286 52.2926L7.71507 57.1617L0.527344 56.6547L7.01383 57.8785L4.03355 60.5884L0.527344 61.3752L3.68293 61.2003L3.33231 64.3473L5.43604 60.5884L9.29287 57.7037L23.4755 55.2035L30.1373 56.3137L24.1767 59.6268L14.3681 59.2772L22.073 60.5884L17.1731 63.648L6.4879 66.795L0.527344 70.2829L6.13728 68.1849L5.61135 71.8564L0.527344 75.3531L5.61135 72.7306L5.96197 76.9266L6.66321 71.8564L8.41631 68.3597L12.9656 67.1446L11.2125 76.2272L5.96197 83.2118L0.527344 85.4846L5.78666 84.6105L5.43604 90.5461L0.527344 95.9659L5.08542 91.7699L5.43604 95.9659L6.13728 91.2454L7.18914 84.086L12.2644 77.8007L15.2447 81.8131L11.2125 89.497L10.336 95.9659L12.0891 90.1964L15.9459 83.037L18.5756 87.0581L15.7706 91.9447L16.2965 95.9659L16.4718 92.644L19.1015 95.9659L16.8225 91.7699L20.3287 86.7085L17.3484 81.1138L22.9495 81.6383L25.4039 86.7085L24.0014 80.4145L16.8225 79.5403L13.8422 75.0034L15.7706 67.1446L19.8027 66.0956L25.4039 62.2493L32.4075 59.2772L37.1409 55.0899L36.2644 58.9275L32.7582 60.5884L37.4915 59.8017L39.7706 56.1389H44.1446L40.6471 60.5884L35.5631 63.8228L29.7867 63.1235L23.8261 67.4856L30.1373 64.1725L35.3878 65.3963L40.9978 62.7738L39.5953 66.795L31.5398 69.2339L19.2768 71.3319L16.9978 75.8776L19.978 72.5557L28.2089 71.5067L24.1767 74.6537L23.3002 77.9756L24.352 75.5279L30.1373 71.3319L33.1088 70.9822L32.4075 78.841L28.5595 83.2118L25.9298 95.9659L28.7348 88.4568L30.8385 89.8467L31.8904 95.8435L32.0657 89.3222L29.6113 86.184L30.3126 83.2118L34.1606 79.3655L35.5631 71.1571L38.894 69.0591L39.9459 75.3531L35.7384 85.4846L36.2644 95.9659L37.3162 88.1071L39.7706 91.4202L39.2447 95.9659L40.6471 90.7209L37.6669 85.3098L39.0693 81.4635L43.6186 84.4356L45.3718 90.3712L43.6186 95.9659L46.4236 90.3712L44.3199 83.037L40.4718 79.7151L42.5756 75.1782L41.1731 68.3597L43.6186 63.4732L46.4236 58.7527Z" fill="white"/>
<path d="M48.5256 34.9401L50.6293 31.6794L48.5256 27.1338L46.4219 31.0326L48.5256 34.9401Z" fill="white"/>
<path d="M50.629 27.1342L49.2266 23.9872L49.9278 19.1006L52.1455 22.8245L50.629 27.1342Z" fill="white"/>
<path d="M45.898 28.5328L46.5993 25.683L44.4955 21.0762L43.5664 25.683L45.898 28.5328Z" fill="white"/>
<path d="M49.7572 16.0758L47.7148 12.4655L49.7572 8.61914L50.6864 14.2051L49.7572 16.0758Z" fill="white"/>
<path d="M52.1498 13.0421L51.5625 6.75684L54.1308 2.79688L55.1827 7.56982L52.1498 13.0421Z" fill="white"/>
<path d="M52.613 20.6125L52.1484 16.7662L54.9534 11.6436L56.5838 16.4777L52.613 20.6125Z" fill="white"/>
<path d="M55.882 27.3699L54.1289 23.4711L56.8199 18.6895L57.9857 23.3837L55.882 27.3699Z" fill="white"/>
<path d="M57.9855 32.1431L56.9336 28.8824L59.5019 25.2109L61.9562 28.6814L57.9855 32.1431Z" fill="white"/>
<path d="M55.1797 37.965L56.0562 34.9404L60.2023 32.9561V35.4649L55.1797 37.965Z" fill="white"/>
<path d="M57.9855 18.6895L56.9336 12.1158L60.6765 8.61914L61.141 12.3431L57.9855 18.6895Z" fill="white"/>
<path d="M59.4492 22.8245V19.2142L62.8941 13.5059L64.1738 18.5148L59.4492 22.8245Z" fill="white"/>
<path d="M62.8949 27.1339L61.957 23.4712L67.7949 18.5146V23.3837L62.8949 27.1339Z" fill="white"/>
<path d="M61.957 34.94L62.8949 31.0325L68.7328 29.6426L67.2163 34.0047L61.957 34.94Z" fill="white"/>
<path d="M64.875 28.6815V27.1342L69.4331 24.3369V27.5975L64.875 28.6815Z" fill="white"/>
<path d="M70.25 29.3452L72.117 24.3362L77.8409 20.6123L75.7372 27.1336L70.25 29.3452Z" fill="white"/>
<path d="M69.4336 34.9408L70.95 31.4441L75.8587 28.8828L74.3949 34.1278L69.4336 34.9408Z" fill="white"/>
<path d="M57.9844 41.9253V39.7136L62.8931 37.1523L61.14 40.7626L57.9844 41.9253Z" fill="white"/>
<path d="M56.0547 47.397L57.6938 44.6084H63.3564L59.4469 46.82L56.0547 47.397Z" fill="white"/>
<path d="M62.8945 46.9336L65.3401 48.0962L70.8361 45.9982L64.1743 45.3076L62.8945 46.9336Z" fill="white"/>
<path d="M61.457 42.861L62.8946 40.999H65.3402L63.4731 42.861H61.457Z" fill="white"/>
<path d="M64.1719 39.128L64.8731 37.1523H68.7299L67.1522 39.128H64.1719Z" fill="white"/>
<path d="M65.75 43.5603L68.7303 40.999H72.2891L69.3702 43.91L65.75 43.5603Z" fill="white"/>
<path d="M69.4336 39.1272L70.95 37.1515L74.3949 36.1025L73.2817 39.1272H69.4336Z" fill="white"/>
<path d="M71.9141 44.6085L74.3947 41.9248H77.9535L77.0244 43.9092L71.9141 44.6085Z" fill="white"/>
<path d="M72.293 46.6975L76.2024 48.0962L80.4098 45.9982L76.3514 45.3076L72.293 46.6975Z" fill="white"/>
<path d="M79.4766 43.9089H82.6234L84.7271 41.6973L80.993 41.9246L79.4766 43.9089Z" fill="white"/>
<path d="M82.3984 45.9984L85.8959 43.9092L89.0515 44.6085L85.8959 46.6978L82.3984 45.9984Z" fill="white"/>
<path d="M89.5156 43.9092L91.6194 41.9248H93.9598L92.0839 43.9092H89.5156Z" fill="white"/>
<path d="M89.5156 45.9982L93.4864 45.3076L96.528 46.6975L93.3725 47.3969L89.5156 45.9982Z" fill="white"/>
<path d="M92.668 40.2983L94.8857 40.9977L96.5248 39.127H94.4211L92.668 40.2983Z" fill="white"/>
<path d="M86.0703 41.9255L88.2354 42.45L90.9176 40.0635H87.1835L86.0703 41.9255Z" fill="white"/>
<path d="M74.3945 40.0632L78.6546 40.5265L82.5728 35.5176L77.778 36.7414L74.3945 40.0632Z" fill="white"/>
<path d="M81.7461 40.063L83.096 37.3881L86.7687 36.7412L85.6029 38.9004L81.7461 40.063Z" fill="white"/>
<path d="M76.0273 34.9404L77.2545 31.2689L81.7512 29.1709C81.7512 29.1709 81.1639 33.4193 81.1113 33.4193C81.05 33.4281 76.0273 34.9404 76.0273 34.9404Z" fill="white"/>
<path d="M77.7773 28.0692L77.8387 25.6827L82.8613 23.1738L82.4494 26.7841L77.7773 28.0692Z" fill="white"/>
<path d="M83.0977 34.3028L84.3161 29.1715L90.9165 27.834L89.0494 32.3796L83.0977 34.3028Z" fill="white"/>
<path d="M87.3594 35.8149L88.4638 34.0665L92.6713 33.3672L90.6815 35.404L87.3594 35.8149Z" fill="white"/>
<path d="M87.4453 39.1017L88.6374 37.1523H91.0304L89.926 38.9007L87.4453 39.1017Z" fill="white"/>
<path d="M91.3828 38.726L94.0738 38.4025L96.5282 36.4531H93.3726L91.3828 38.726Z" fill="white"/>
<path d="M93.6094 43.4985L94.9505 42.8604L96.5283 43.1751L95.4151 44.1366L93.6094 43.4985Z" fill="white"/>
<path d="M91.0312 31.8539L92.609 28.6806L96.5272 27.5967L94.9494 30.7175L91.0312 31.8539Z" fill="white"/>
<path d="M93.6094 34.0663L94.9505 32.6064H96.5283L95.4151 34.0401L93.6094 34.0663Z" fill="white"/>
<path d="M84.0273 27.1337L88.8484 26.513L91.031 22.2471L85.0179 23.3835L84.0273 27.1337Z" fill="white"/>
<path d="M92.0273 26.2596L92.0799 24.3365L96.5241 23.1738L94.9463 25.9712L92.0273 26.2596Z" fill="white"/>
<path d="M92.082 21.775L92.494 18.2871L96.5261 16.4775L95.4129 21.1368L92.082 21.775Z" fill="white"/>
<path d="M85.543 21.251L90.215 19.9135L90.7409 15.3154L85.543 17.8767V21.251Z" fill="white"/>
<path d="M79.4766 22.4744L82.8601 21.775L83.5613 18.2871L80.1164 19.7994L79.4766 22.4744Z" fill="white"/>
<path d="M91.6797 16.8888L92.0829 14.9044L93.9237 14.2051L93.3714 16.0758L91.6797 16.8888Z" fill="white"/>
<path d="M94.7734 15.5512L95.1766 14.205L96.5265 13.6543L96.0006 15.5512H94.7734Z" fill="white"/>
<path d="M93.7812 13.1039L95.4116 12.5794L96.5249 10.4814L94.2984 10.9448L93.7812 13.1039Z" fill="white"/>
<path d="M88.9883 14.5988L91.6793 13.6547L92.8013 10.4814L89.4616 11.7927L88.9883 14.5988Z" fill="white"/>
<path d="M70.0117 22.4751L73.6932 20.9016L76.0249 16.0762L70.4851 17.2388L70.0117 22.4751Z" fill="white"/>
<path d="M77.5508 18.2881L78.8919 13.9784L83.0994 12.3438L82.5734 16.8894L77.5508 18.2881Z" fill="white"/>
<path d="M84.7266 16.3027L85.3138 11.1189L89.2233 6.58203L87.4439 13.9425L84.7266 16.3027Z" fill="white"/>
<path d="M65.8646 17.3518L65.6367 12.3429L70.9486 7.8584L70.3613 13.6541L65.8646 17.3518Z" fill="white"/>
<path d="M63.4731 12.6058L65.6381 9.84348L64.8755 5.47266L62.8945 9.78229L63.4731 12.6058Z" fill="white"/>
<path d="M57.2842 9.66759L60.2031 5.82127L59.4493 0.235352L56.9336 4.89465L57.2842 9.66759Z" fill="white"/>
<path d="M56.0562 3.147L56.7049 1.86197L56.0562 0L55.1797 1.5735L56.0562 3.147Z" fill="white"/>
<path d="M49.7536 6.23213L50.9194 4.24777L48.7631 0.235352L48.1758 3.84565L49.7536 6.23213Z" fill="white"/>
<path d="M52.1498 3.147L53.1403 1.5735L52.1498 0L51.5625 1.86197L52.1498 3.147Z" fill="white"/>
<path d="M61.9558 7.80634L61.1406 3.49671L62.8937 1.80957L63.2444 4.65935L61.9558 7.80634Z" fill="white"/>
<path d="M64.2597 4.54499L63.8828 1.57282L64.5841 0.235352L65.6359 1.80885L64.2597 4.54499Z" fill="white"/>
<path d="M66.7412 7.85829L66.3906 5.24454L68.6697 2.79688L68.9589 6.23234L66.7412 7.85829Z" fill="white"/>
<path d="M67.6819 0.235352L66.6914 1.80885L67.156 3.14632L68.2955 1.57282L67.6819 0.235352Z" fill="white"/>
<path d="M71.7122 0.235352L70.0117 2.09732L70.4851 4.24777L72.1768 2.23719L71.7122 0.235352Z" fill="white"/>
<path d="M75.3314 1.80957L72.1758 5.07021V9.03892L74.6827 6.23285L75.3314 1.80957Z" fill="white"/>
<path d="M76.0238 8.26953L72.7017 11.0931L72.1758 15.0268L76.6111 13.6544L76.0238 8.26953Z" fill="white"/>
<path d="M79.9962 7.57031L77.8398 9.03891L78.4271 11.7925L81.1707 11.0932L79.9962 7.57031Z" fill="white"/>
<path d="M77.1408 7.10701L79.4812 5.82199V1.80957L76.8516 5.33246L77.1408 7.10701Z" fill="white"/>
<path d="M76.375 3.54844V1.80885L77.7775 0.235352L78.1632 2.23719L76.375 3.54844Z" fill="white"/>
<path d="M80.3203 4.45757V1.68647L82.8623 0.235352V2.34209L80.3203 4.45757Z" fill="white"/>
<path d="M81.1719 7.57009V5.99659L83.1003 4.1084L82.8636 6.40745L81.1719 7.57009Z" fill="white"/>
<path d="M82.5097 10.4817L82.1328 8.61969L85.8932 5.83984L85.2533 9.03929L82.5097 10.4817Z" fill="white"/>
<path d="M87.4711 6.58201L87.2344 4.24799L89.2242 2.79688L89.3381 5.3844L87.4711 6.58201Z" fill="white"/>
<path d="M84.4922 4.68513L86.2453 4.24805L85.5441 1.54688L84.4922 3.23401V4.68513Z" fill="white"/>
<path d="M86.6585 2.79666L86.4219 1.57282L87.8857 0.235352L88.1487 1.51163L86.6585 2.79666Z" fill="white"/>
<path d="M90.3945 2.58686V0.812301L92.805 0.235352L92.0863 1.88752L90.3945 2.58686Z" fill="white"/>
<path d="M90.2148 5.83932V3.93364L92.3186 3.04199L92.0819 4.94767L90.2148 5.83932Z" fill="white"/>
<path d="M89.9258 9.67658L90.4517 7.56984L92.3188 6.58203L92.0821 8.61884L89.9258 9.67658Z" fill="white"/>
<path d="M93.2578 8.61903L94.3009 5.33217L96.5273 4.45801L95.6508 7.85851L93.2578 8.61903Z" fill="white"/>
<path d="M93.2578 4.24777L95.6508 3.23374L96.2293 0.235352L93.924 1.88752L93.2578 4.24777Z" fill="white"/>
<path d="M47.1939 22.1867L48.4386 19.7828L47.8163 16.6445L46.3086 18.7338L47.1939 22.1867Z" fill="white"/>
<path d="M44.9079 13.0421L45.4952 6.75684L42.9269 2.79688L41.875 7.56982L44.9079 13.0421Z" fill="white"/>
<path d="M44.4434 20.6125L44.908 16.7662L42.103 11.6436L40.4727 16.4777L44.4434 20.6125Z" fill="white"/>
<path d="M41.174 27.3699L42.2259 22.7718L40.2361 18.6895L39.0703 23.3837L41.174 27.3699Z" fill="white"/>
<path d="M40.4708 32.1431L40.1202 28.1831L37.5519 25.2109L36.5 30.08L40.4708 32.1431Z" fill="white"/>
<path d="M41.8742 39.1277L42.4001 35.395L36.8516 32.9561V36.0419L41.8742 39.1277Z" fill="white"/>
<path d="M39.0697 18.6895L40.1215 12.1158L36.3786 8.61914L35.9141 12.3431L39.0697 18.6895Z" fill="white"/>
<path d="M37.6035 22.8245V19.2142L34.1587 13.5059L32.8789 18.5148L37.6035 22.8245Z" fill="white"/>
<path d="M34.1577 27.1339L35.0957 23.4712L29.2578 18.5146V23.3837L34.1577 27.1339Z" fill="white"/>
<path d="M35.1 34.94L34.1621 31.0325L28.3242 29.6426L29.8407 34.0047L35.1 34.94Z" fill="white"/>
<path d="M32.1831 28.6815V27.1342L27.625 24.3369V27.5975L32.1831 28.6815Z" fill="white"/>
<path d="M26.8058 29.3452L24.9387 24.3362L19.2148 20.6123L21.3186 27.1336L26.8058 29.3452Z" fill="white"/>
<path d="M27.6204 34.9408L26.104 31.4441L21.1953 28.8828L22.6592 34.1278L27.6204 34.9408Z" fill="white"/>
<path d="M39.0688 41.9253V39.7136L34.1602 37.1523L35.9133 40.7626L39.0688 41.9253Z" fill="white"/>
<path d="M41.0009 47.397L39.3617 44.6084H33.6992L37.6086 46.82L41.0009 47.397Z" fill="white"/>
<path d="M34.1603 46.9336L31.7147 48.0962L26.2188 45.9982L32.8805 45.3076L34.1603 46.9336Z" fill="white"/>
<path d="M35.598 42.861L34.1604 40.999H31.7148L33.5819 42.861H35.598Z" fill="white"/>
<path d="M32.8823 39.128L32.181 37.1523H28.3242L29.902 39.128H32.8823Z" fill="white"/>
<path d="M31.3047 43.5603L28.3244 40.999H24.7656L27.6845 43.91L31.3047 43.5603Z" fill="white"/>
<path d="M27.6214 39.1272L26.105 37.1515L22.6602 36.1025L23.7734 39.1272H27.6214Z" fill="white"/>
<path d="M25.141 44.6085L22.6604 41.9248H19.1016L20.0307 43.9092L25.141 44.6085Z" fill="white"/>
<path d="M24.7653 46.6975L20.8559 48.0962L16.6484 45.9982L20.7069 45.3076L24.7653 46.6975Z" fill="white"/>
<path d="M17.5787 43.9089H14.4319L12.3281 41.6973L16.0622 41.9246L17.5787 43.9089Z" fill="white"/>
<path d="M14.6569 45.9984L11.1595 43.9092L8.00391 44.6085L11.1595 46.6978L14.6569 45.9984Z" fill="white"/>
<path d="M7.53787 43.9092L5.43415 41.9248H3.09375L4.96957 43.9092H7.53787Z" fill="white"/>
<path d="M7.53976 45.9982L3.56898 45.3076L0.527344 46.6975L3.68293 47.3969L7.53976 45.9982Z" fill="white"/>
<path d="M4.38417 40.2983L2.16649 40.9977L0.527344 39.127H2.63107L4.38417 40.2983Z" fill="white"/>
<path d="M10.988 41.9255L8.82287 42.45L6.14062 40.0635H9.87474L10.988 41.9255Z" fill="white"/>
<path d="M22.6626 40.0632L18.4026 40.5265L14.4844 35.5176L19.2791 36.7414L22.6626 40.0632Z" fill="white"/>
<path d="M15.3039 40.063L13.954 37.3881L10.2812 36.7412L11.4471 38.9004L15.3039 40.063Z" fill="white"/>
<path d="M21.0325 34.9404L19.8053 31.2689L15.3086 29.1709C15.3086 29.1709 15.8959 33.4193 15.9485 33.4193C16.0098 33.4281 21.0325 34.9404 21.0325 34.9404Z" fill="white"/>
<path d="M19.2793 28.0692L19.218 25.6827L14.1953 23.1738L14.6073 26.7841L19.2793 28.0692Z" fill="white"/>
<path d="M13.9595 34.3028L12.7411 29.1715L6.14062 27.834L8.00768 32.3796L13.9595 34.3028Z" fill="white"/>
<path d="M9.69862 35.8149L8.59417 34.0665L4.38672 33.3672L6.37649 35.404L9.69862 35.8149Z" fill="white"/>
<path d="M9.60854 39.1017L8.41643 37.1523H6.02344L7.12789 38.9007L9.60854 39.1017Z" fill="white"/>
<path d="M5.6727 38.726L2.98169 38.4025L0.527344 36.4531H3.68293L5.6727 38.726Z" fill="white"/>
<path d="M3.44626 43.4985L2.10514 42.8604L0.527344 43.1751L1.64056 44.1366L3.44626 43.4985Z" fill="white"/>
<path d="M6.02332 31.8539L4.44553 28.6806L0.527344 27.5967L2.10514 30.7175L6.02332 31.8539Z" fill="white"/>
<path d="M3.44626 34.0663L2.10514 32.6064H0.527344L1.64056 34.0401L3.44626 34.0663Z" fill="white"/>
<path d="M13.0271 27.1337L8.20605 26.513L6.02344 22.2471L12.0366 23.3835L13.0271 27.1337Z" fill="white"/>
<path d="M5.02406 26.2596L4.97146 24.3365L0.527344 23.1738L2.10514 25.9712L5.02406 26.2596Z" fill="white"/>
<path d="M4.97146 21.775L4.55948 18.2871L0.527344 16.4775L1.64056 21.1368L4.97146 21.775Z" fill="white"/>
<path d="M11.5104 21.251L6.83843 19.9135L6.3125 15.3154L11.5104 17.8767V21.251Z" fill="white"/>
<path d="M17.5769 22.4744L14.1934 21.775L13.4922 18.2871L16.937 19.7994L17.5769 22.4744Z" fill="white"/>
<path d="M5.37679 16.8888L4.97357 14.9044L3.13281 14.2051L3.68504 16.0758L5.37679 16.8888Z" fill="white"/>
<path d="M2.28045 15.5512L1.87723 14.205L0.527344 13.6543L1.05328 15.5512H2.28045Z" fill="white"/>
<path d="M3.27095 13.1039L1.64056 12.5794L0.527344 10.4814L2.75378 10.9448L3.27095 13.1039Z" fill="white"/>
<path d="M8.063 14.5988L5.37199 13.6547L4.25 10.4814L7.58966 11.7927L8.063 14.5988Z" fill="white"/>
<path d="M27.0444 22.4751L23.3629 20.9016L21.0312 16.0762L26.5711 17.2388L27.0444 22.4751Z" fill="white"/>
<path d="M19.5056 18.2881L18.1645 13.9784L13.957 12.3438L14.483 16.8894L19.5056 18.2881Z" fill="white"/>
<path d="M12.3248 16.3027L11.7376 11.1189L7.82812 6.58203L9.60753 13.9425L12.3248 16.3027Z" fill="white"/>
<path d="M31.1895 17.3518L31.4174 12.3429L26.1055 7.8584L26.6928 13.6541L31.1895 17.3518Z" fill="white"/>
<path d="M33.583 12.6058L31.418 9.84348L32.1806 5.47266L34.1616 9.78229L33.583 12.6058Z" fill="white"/>
<path d="M39.7705 9.66759L36.8516 5.82127L37.6054 0.235352L40.1211 4.89465L39.7705 9.66759Z" fill="white"/>
<path d="M40.9963 3.147L40.3477 1.86197L40.9963 0L41.8729 1.5735L40.9963 3.147Z" fill="white"/>
<path d="M47.9677 10.4199L46.5039 8.80266L46.9246 4.4668L48.4411 7.77114L47.9677 10.4199Z" fill="white"/>
<path d="M45.6859 4.46698L44.0117 2.22912L45.6859 0L46.6764 2.64872L45.6859 4.46698Z" fill="white"/>
<path d="M35.101 7.80634L35.9162 3.49671L34.1631 1.80957L33.8125 4.65935L35.101 7.80634Z" fill="white"/>
<path d="M32.7942 4.54499L33.1711 1.57282L32.4698 0.235352L31.418 1.80885L32.7942 4.54499Z" fill="white"/>
<path d="M30.3153 7.85829L30.6659 5.24454L28.3869 2.79688L28.0977 6.23234L30.3153 7.85829Z" fill="white"/>
<path d="M29.3714 0.235352L30.3619 1.80885L29.8973 3.14632L28.7578 1.57282L29.3714 0.235352Z" fill="white"/>
<path d="M25.3435 0.235352L27.044 2.09732L26.5707 4.24777L24.8789 2.23719L25.3435 0.235352Z" fill="white"/>
<path d="M21.7227 1.80957L24.8782 5.07021V9.03892L22.3713 6.23285L21.7227 1.80957Z" fill="white"/>
<path d="M21.0287 8.26953L24.3508 11.0931L24.8768 15.0268L20.4414 13.6544L21.0287 8.26953Z" fill="white"/>
<path d="M17.0574 7.57031L19.2137 9.03891L18.6264 11.7925L15.8828 11.0932L17.0574 7.57031Z" fill="white"/>
<path d="M19.9185 7.10701L17.5781 5.82199V1.80957L20.2078 5.33246L19.9185 7.10701Z" fill="white"/>
<path d="M20.6788 3.54844V1.80885L19.2763 0.235352L18.8906 2.23719L20.6788 3.54844Z" fill="white"/>
<path d="M16.7373 4.45757V1.68647L14.1953 0.235352V2.34209L16.7373 4.45757Z" fill="white"/>
<path d="M15.8854 7.57009V5.99659L13.957 4.1084L14.1937 6.40745L15.8854 7.57009Z" fill="white"/>
<path d="M14.5437 10.4817L14.9206 8.61969L11.1602 5.83984L11.8 9.03929L14.5437 10.4817Z" fill="white"/>
<path d="M9.58189 6.58201L9.81857 4.24799L7.82879 2.79688L7.71484 5.3844L9.58189 6.58201Z" fill="white"/>
<path d="M12.5617 4.68513L10.8086 4.24805L11.5098 1.54688L12.5617 3.23401V4.68513Z" fill="white"/>
<path d="M10.3964 2.79666L10.6331 1.57282L9.16922 0.235352L8.90625 1.51163L10.3964 2.79666Z" fill="white"/>
<path d="M6.66052 2.58686V0.812301L4.25 0.235352L4.96877 1.88752L6.66052 2.58686Z" fill="white"/>
<path d="M6.8381 5.83932V3.93364L4.73438 3.04199L4.97104 4.94767L6.8381 5.83932Z" fill="white"/>
<path d="M7.12736 9.67658L6.60143 7.56984L4.73438 6.58203L4.97104 8.61884L7.12736 9.67658Z" fill="white"/>
<path d="M3.79688 8.61903L2.75378 5.33217L0.527344 4.45801L1.4039 7.85851L3.79688 8.61903Z" fill="white"/>
<path d="M3.79573 4.24777L1.40275 3.23374L0.824219 0.235352L3.12955 1.88752L3.79573 4.24777Z" fill="white"/>
<path d="M11.5431 103.345V113.791H9.74617V106.387L6.29256 111.711L2.84771 106.387V113.791H1.05078V103.345H3.01426L6.29256 108.415L9.5884 103.345H11.5431Z" fill="white"/>
<path d="M23.651 113.808H21.6787L20.8723 112.016L20.0659 110.224L17.9446 105.538L15.8234 110.224H18.5495L19.3559 112.016H15.0169L14.2105 113.808H12.2383L16.9629 103.361H18.9351L23.651 113.808Z" fill="white"/>
<path d="M33.7804 108.117C33.7979 108.266 33.8067 108.415 33.8067 108.563C33.8067 109.306 33.6664 110.014 33.3771 110.679C33.0966 111.343 32.7022 111.92 32.2113 112.41C31.7205 112.899 31.1419 113.293 30.4758 113.572C29.8096 113.852 29.1083 114.001 28.3545 114.001C27.6007 114.001 26.8994 113.861 26.2332 113.572C25.5671 113.293 24.9885 112.899 24.4977 112.41C24.0068 111.92 23.6124 111.343 23.3319 110.679C23.0514 110.014 22.9023 109.315 22.9023 108.563C22.9023 107.82 23.0426 107.112 23.3319 106.448C23.6124 105.783 24.0068 105.206 24.4977 104.717C24.9885 104.227 25.5671 103.834 26.2332 103.554C26.8994 103.275 27.6007 103.126 28.3545 103.126C29.1083 103.126 29.8183 103.266 30.4758 103.554C31.1332 103.834 31.7117 104.227 32.1938 104.726L30.9403 105.993C30.5897 105.644 30.1953 105.381 29.7482 105.198C29.3012 105.014 28.8366 104.918 28.3457 104.918C27.8549 104.918 27.3903 105.014 26.952 105.198C26.5137 105.381 26.1193 105.652 25.7687 105.993C25.4181 106.343 25.1551 106.736 24.971 107.173C24.7869 107.61 24.6905 108.074 24.6905 108.563C24.6905 109.053 24.7869 109.516 24.971 109.962C25.1551 110.408 25.4181 110.801 25.7687 111.151C26.1193 111.5 26.5137 111.763 26.952 111.938C27.3903 112.112 27.8549 112.209 28.3457 112.209C28.8366 112.209 29.3012 112.121 29.7482 111.938C30.1953 111.763 30.5897 111.492 30.9403 111.151C31.4049 110.661 31.7292 110.102 31.8958 109.464H27.0484L27.4955 107.672H33.719C33.7541 107.82 33.7716 107.969 33.7804 108.117Z" fill="white"/>
<path d="M36.5782 113.808H34.7812V103.379H36.5782V113.808Z" fill="white"/>
<path d="M46.7816 112.401C46.282 112.899 45.7035 113.293 45.0461 113.572C44.3887 113.852 43.6786 114.001 42.9248 114.001C42.1797 114.001 41.4697 113.861 40.8036 113.572C40.1374 113.293 39.5588 112.899 39.068 112.41C38.5771 111.92 38.1827 111.343 37.9022 110.679C37.6217 110.014 37.4727 109.315 37.4727 108.563C37.4727 107.82 37.6129 107.112 37.9022 106.448C38.1827 105.783 38.5771 105.206 39.068 104.717C39.5588 104.227 40.1374 103.834 40.8036 103.554C41.4697 103.275 42.171 103.126 42.9248 103.126C43.6786 103.126 44.3887 103.266 45.0461 103.554C45.7035 103.834 46.282 104.227 46.7816 104.726L45.5106 105.993C45.16 105.644 44.7656 105.381 44.3273 105.198C43.889 105.014 43.4157 104.918 42.9248 104.918C42.4339 104.918 41.9694 105.014 41.5311 105.198C41.0928 105.381 40.6984 105.652 40.3477 105.993C39.9971 106.343 39.7342 106.736 39.5501 107.173C39.366 107.61 39.2696 108.074 39.2696 108.563C39.2696 109.053 39.366 109.516 39.5501 109.962C39.7342 110.408 39.9971 110.801 40.3477 111.151C40.6984 111.5 41.0928 111.763 41.5311 111.938C41.9694 112.112 42.4339 112.209 42.9248 112.209C43.4244 112.209 43.889 112.121 44.3273 111.938C44.7656 111.763 45.16 111.492 45.5106 111.151L46.7816 112.401Z" fill="white"/>
<path d="M60.9376 103.345V113.791H59.1407V106.387L55.6871 111.711L52.2422 106.387V113.791H50.4453V103.345H52.4088L55.6871 108.415L58.9829 103.345H60.9376Z" fill="white"/>
<path d="M73.0435 113.808H71.0713L70.2648 112.016L69.4584 110.224L67.3372 105.538L65.2159 110.224H67.942L68.7484 112.016H64.3919L63.5855 113.808H61.6133L66.3379 103.361H68.3101L73.0435 113.808Z" fill="white"/>
<path d="M79.0881 103.66C79.5439 103.861 79.9471 104.132 80.289 104.464C80.6308 104.805 80.8938 105.198 81.0954 105.653C81.297 106.107 81.3934 106.588 81.3934 107.104C81.3934 107.62 81.297 108.109 81.0954 108.564C80.8938 109.018 80.6308 109.42 80.289 109.761C79.9471 110.102 79.5527 110.365 79.0881 110.566C78.6323 110.767 78.1414 110.863 77.6243 110.863H76.1254L76.8617 109.071H77.6243C78.159 109.071 78.6235 108.878 79.018 108.485C79.4124 108.092 79.6053 107.637 79.6053 107.095C79.6053 106.544 79.4124 106.09 79.018 105.723C78.6323 105.338 78.1677 105.137 77.6243 105.137H75.5118V113.791H73.7148V103.345H77.6243C78.1414 103.362 78.6235 103.459 79.0881 103.66Z" fill="white"/>
<path d="M88.197 112.016V113.808H84.086H82.2891V112.016V103.379H84.086V112.016H88.197Z" fill="white"/>
<path d="M90.8204 105.153V107.688H94.7298L95.1768 109.48H90.8204V112.016H96.0709V113.808H89.0234V103.361H96.0709V105.153H90.8204Z" fill="white"/>
</svg>
