<svg width="48" height="48" viewBox="0 0 48 48" fill="none" xmlns="http://www.w3.org/2000/svg">
<path opacity="0.15" d="M34.8933 8H13.1067C8.54667 8 5 11.4462 5 15.8769V32.1231C5 36.3077 8.54667 40 13.1067 40H34.8933C39.4533 40 43 36.5538 43 32.1231V15.8769C43 11.4462 39.4533 8 34.8933 8Z" fill="#FFFCE0"/>
<path d="M9 16V19.267L23.5 27.8115C23.75 28.0628 24.25 28.0628 24.5 27.8115L39 19.267V16L24 24.7958L9 16Z" fill="white"/>
<path d="M13.25 11C11 11 9 13.08 9 15.42V15.94L24 25.04L39 15.94V15.42C39 13.08 37 11 34.75 11H13.25ZM39 19.32L24.5 28.16C24.25 28.42 23.75 28.42 23.5 28.16L9 19.32V32.84C9 34.92 11 37 13.25 37H34.75C37 37 39 35.18 39 32.58V19.32Z" fill="#C0A070"/>
</svg>
