<svg width="16" height="16" viewBox="0 0 16 16" fill="none" xmlns="http://www.w3.org/2000/svg">
<g clip-path="url(#clip0_1244_9297)">
<path d="M11.9997 1.33337L14.6663 4.00004M1.33301 14.6667L2.18394 11.5466C2.23946 11.3431 2.26722 11.2413 2.30983 11.1464C2.34766 11.0621 2.39416 10.982 2.44855 10.9073C2.50982 10.8232 2.58441 10.7486 2.73361 10.5994L9.62255 3.7105C9.75456 3.57849 9.82056 3.51249 9.89667 3.48776C9.96362 3.46601 10.0357 3.46601 10.1027 3.48776C10.1788 3.51249 10.2448 3.57849 10.3768 3.7105L12.2892 5.62292C12.4212 5.75492 12.4872 5.82093 12.512 5.89704C12.5337 5.96398 12.5337 6.0361 12.512 6.10305C12.4872 6.17916 12.4212 6.24516 12.2892 6.37716L5.40028 13.2661C5.25108 13.4153 5.17648 13.4899 5.0924 13.5512C5.01774 13.6056 4.93762 13.6521 4.85335 13.6899C4.75844 13.7325 4.65666 13.7603 4.4531 13.8158L1.33301 14.6667Z" stroke="#42366D" stroke-width="1.5" stroke-linecap="round" stroke-linejoin="round"/>
</g>
<defs>
<clipPath id="clip0_1244_9297">
<rect width="16" height="16" fill="white"/>
</clipPath>
</defs>
</svg>
