<svg width="48" height="48" viewBox="0 0 48 48" fill="none" xmlns="http://www.w3.org/2000/svg">
<path d="M28.467 22.0113L20.8878 29.2812C19.8009 30.3237 19.1364 31.7301 19.0209 33.2316L18.4722 40.3662C18.4557 40.3638 18.4164 40.3578 18.4164 40.3578L18.4089 40.3533L18.3342 40.3251C18.2733 40.3023 18.228 40.2813 18.1947 40.2615C18.0759 40.1856 17.9604 40.0776 17.8596 39.9417C17.5707 39.5775 17.3454 39.09 17.112 38.3394C16.818 37.4049 15.9429 34.5234 15.2397 32.2077C14.8338 30.8712 14.4921 29.7459 14.3688 29.3466L14.2395 28.9278L13.9986 28.8462L27.4599 20.6985C28.3101 20.1834 29.1843 21.3231 28.467 22.0113Z" fill="#073044"/>
<path d="M42.4587 10.8174L36.7545 40.245L36.7287 40.3116C36.7248 40.3218 36.4608 40.9827 35.8344 41.4912C35.4216 41.8257 34.7859 42.0255 34.1343 42.0255C33.6756 42.0255 33.225 41.9292 32.7948 41.7396L32.7204 41.7075L26.5176 36.9144C26.0787 36.5754 25.5324 36.3885 24.9789 36.3885C24.3477 36.3885 23.7429 36.624 23.2767 37.0515L19.92 40.1301L19.8921 40.152C19.8921 40.152 19.482 40.4478 18.9519 40.4478C18.8124 40.4478 18.6732 40.4271 18.5385 40.386L18.4797 40.368L18.4713 40.3668L19.02 33.2322C19.1355 31.7307 19.8003 30.3243 20.8869 29.2818L28.467 22.0113C29.1843 21.3231 28.3101 20.1834 27.4596 20.6982L13.9983 28.8456L6.28077 26.2278C6.15027 26.1732 5.85267 26.0376 5.54907 25.8198C4.93947 25.3845 4.60737 24.8754 4.53177 24.2628C4.47597 23.8251 4.64157 23.3961 4.81527 23.1393C5.03847 22.8096 5.29707 22.6179 5.47257 22.5027C5.87277 22.2258 6.25047 22.0758 6.35727 22.0359L6.39297 22.0218C6.91887 21.7986 14.6139 18.5313 22.4367 15.2133L33.7338 10.4211L35.4711 9.68701C37.4748 8.84041 38.8437 8.26171 39.2955 8.07721L39.378 8.04631C39.6654 7.93381 40.098 7.78171 40.5339 7.76131C40.5675 7.75981 40.6014 7.75891 40.6359 7.75891C41.0088 7.75891 41.3514 7.85581 41.6838 8.05531C42.0486 8.27281 42.3726 8.71501 42.4923 9.15721C42.6177 9.62011 42.6072 10.1481 42.4587 10.8174Z" fill="url(#paint0_linear_1244_8376)"/>
<defs>
<linearGradient id="paint0_linear_1244_8376" x1="23.5498" y1="7.75891" x2="23.5498" y2="42.0255" gradientUnits="userSpaceOnUse">
<stop stop-color="#2DA5E1"/>
<stop offset="1" stop-color="#0B82BD"/>
</linearGradient>
</defs>
</svg>
